<?xml version="1.0" encoding="UTF-8"?>
<svg width="256px" height="470px" viewBox="0 0 256 470" version="1.1" xmlns="http://www.w3.org/2000/svg" xmlns:xlink="http://www.w3.org/1999/xlink">
    <!-- Generator: Sketch 50.2 (55047) - http://www.bohemiancoding.com/sketch -->
    <title>arrow-pattern-left</title>
    <desc>Created with Sketch.</desc>
    <defs></defs>
    <g id="Page-1" stroke="none" stroke-width="1" fill="none" fill-rule="evenodd">
        <g id="Desktop-HD" transform="translate(0.000000, -174.000000)" fill="#000000" fill-rule="nonzero">
            <path d="M242.115936,373.976445 C242.719591,373.674518 243.47416,373.724839 243.977206,374.17773 L255.195127,383.185225 C255.245431,383.235546 255.34604,383.285867 255.396345,383.336188 L255.496954,383.436831 C255.547259,383.487152 255.547259,383.487152 255.547259,383.487152 C255.849086,383.789079 256,384.191649 256,384.64454 C256,385.09743 255.849086,385.5 255.597563,385.801927 L255.496954,385.952891 L255.396345,386.003212 C255.34604,386.053533 255.295736,386.053533 255.245431,386.103854 L244.02751,395.111349 C243.47416,395.513919 242.769896,395.614561 242.115936,395.312634 C241.461977,395.010707 241.05954,394.406852 241.05954,393.752677 C241.05954,393.299786 241.311063,392.846895 241.7135,392.494647 L249.259186,386.405782 L213.995677,386.405782 C212.989585,386.405782 212.235017,385.650964 212.235017,384.64454 C212.235017,383.638116 212.989585,382.883298 213.995677,382.883298 L249.259186,382.883298 L241.7135,376.794433 C241.260758,376.492505 241.05954,376.039615 241.05954,375.536403 C241.05954,374.882227 241.461977,374.278373 242.115936,373.976445 Z M211.933189,343.783726 C212.536844,343.481799 213.291413,343.53212 213.794459,343.985011 L225.01238,352.992505 C225.062684,353.042827 225.163293,353.093148 225.213598,353.143469 L225.314207,353.244111 C225.364512,353.294433 225.364512,353.294433 225.364512,353.294433 C225.666339,353.59636 225.817253,353.998929 225.817253,354.45182 C225.817253,354.904711 225.666339,355.307281 225.414816,355.609208 L225.314207,355.760171 L225.213598,355.810493 C225.163293,355.860814 225.112989,355.860814 225.062684,355.911135 L213.844763,364.91863 C213.291413,365.321199 212.587149,365.421842 211.933189,365.119914 C211.27923,364.817987 210.876793,364.214133 210.876793,363.559957 C210.876793,363.107066 211.128316,362.654176 211.530753,362.301927 L219.076439,356.213062 L183.81293,356.213062 C182.806838,356.213062 182.05227,355.458244 182.05227,354.45182 C182.05227,353.445396 182.806838,352.690578 183.81293,352.690578 L219.076439,352.690578 L211.530753,346.601713 C211.078011,346.299786 210.876793,345.846895 210.876793,345.343683 C210.876793,344.689507 211.27923,344.085653 211.933189,343.783726 Z M211.933189,404.169165 C212.536844,403.867238 213.291413,403.917559 213.794459,404.37045 L225.01238,413.377944 C225.062684,413.428266 225.163293,413.478587 225.213598,413.528908 L225.314207,413.62955 C225.364512,413.679872 225.364512,413.679872 225.364512,413.679872 C225.666339,413.981799 225.817253,414.384368 225.817253,414.837259 C225.817253,415.29015 225.666339,415.692719 225.414816,415.994647 L225.314207,416.14561 L225.213598,416.195931 C225.163293,416.246253 225.112989,416.246253 225.062684,416.296574 L213.844763,425.304069 C213.291413,425.706638 212.587149,425.807281 211.933189,425.505353 C211.27923,425.203426 210.876793,424.599572 210.876793,423.945396 C210.876793,423.492505 211.128316,423.039615 211.530753,422.687366 L219.076439,416.598501 L183.81293,416.598501 C182.806838,416.598501 182.05227,415.843683 182.05227,414.837259 C182.05227,413.830835 182.806838,413.076017 183.81293,413.076017 L219.076439,413.076017 L211.530753,406.987152 C211.078011,406.685225 210.876793,406.232334 210.876793,405.729122 C210.876793,405.074946 211.27923,404.471092 211.933189,404.169165 Z M242.115936,483.022484 C242.719591,482.720557 243.47416,482.821199 243.977206,483.223769 L255.195127,492.231263 C255.245431,492.281585 255.34604,492.331906 255.396345,492.382227 L255.496954,492.482869 C255.547259,492.533191 255.547259,492.533191 255.547259,492.533191 C255.849086,492.835118 256,493.237687 256,493.690578 C256,494.143469 255.849086,494.546039 255.597563,494.847966 L255.496954,494.998929 L255.396345,495.049251 C255.34604,495.099572 255.295736,495.099572 255.245431,495.149893 L244.02751,504.157388 C243.47416,504.559957 242.769896,504.6606 242.115936,504.358672 C241.461977,504.056745 241.05954,503.452891 241.05954,502.798715 C241.05954,502.345824 241.311063,501.892934 241.7135,501.540685 L249.259186,495.45182 L213.995677,495.45182 C212.989585,495.45182 212.235017,494.697002 212.235017,493.690578 C212.235017,492.684154 212.989585,491.929336 213.995677,491.929336 L249.259186,491.929336 L241.7135,485.840471 C241.260758,485.538544 241.05954,485.085653 241.05954,484.582441 C241.05954,483.928266 241.461977,483.324411 242.115936,483.022484 Z M211.933189,452.829764 C212.536844,452.527837 213.291413,452.62848 213.794459,453.031049 L225.01238,462.038544 C225.062684,462.088865 225.163293,462.139186 225.213598,462.189507 L225.314207,462.29015 C225.364512,462.340471 225.364512,462.340471 225.364512,462.340471 C225.666339,462.642398 225.817253,463.044968 225.817253,463.497859 C225.817253,463.950749 225.666339,464.353319 225.414816,464.655246 L225.314207,464.80621 L225.213598,464.856531 C225.163293,464.906852 225.112989,464.906852 225.062684,464.957173 L213.844763,473.964668 C213.291413,474.367238 212.587149,474.46788 211.933189,474.165953 C211.27923,473.864026 210.876793,473.260171 210.876793,472.605996 C210.876793,472.153105 211.128316,471.700214 211.530753,471.347966 L219.076439,465.259101 L183.81293,465.259101 C182.806838,465.259101 182.05227,464.504283 182.05227,463.497859 C182.05227,462.491435 182.806838,461.736617 183.81293,461.736617 L219.076439,461.736617 L211.530753,455.647752 C211.078011,455.345824 210.876793,454.892934 210.876793,454.389722 C210.876793,453.735546 211.27923,453.131692 211.933189,452.829764 Z M211.933189,513.215203 C212.536844,512.913276 213.291413,513.013919 213.794459,513.416488 L225.01238,522.423983 C225.062684,522.474304 225.163293,522.524625 225.213598,522.574946 L225.314207,522.675589 C225.364512,522.72591 225.364512,522.72591 225.364512,522.72591 C225.666339,523.027837 225.817253,523.430407 225.817253,523.883298 C225.817253,524.336188 225.666339,524.738758 225.414816,525.040685 L225.314207,525.191649 L225.213598,525.24197 C225.163293,525.292291 225.112989,525.292291 225.062684,525.342612 L213.844763,534.350107 C213.291413,534.752677 212.587149,534.853319 211.933189,534.551392 C211.27923,534.249465 210.876793,533.64561 210.876793,532.991435 C210.876793,532.538544 211.128316,532.085653 211.530753,531.733405 L219.076439,525.64454 L183.81293,525.64454 C182.806838,525.64454 182.05227,524.889722 182.05227,523.883298 C182.05227,522.876874 182.806838,522.122056 183.81293,522.122056 L219.076439,522.122056 L211.530753,516.033191 C211.078011,515.731263 210.876793,515.278373 210.876793,514.775161 C210.876793,514.120985 211.27923,513.517131 211.933189,513.215203 Z M242.115936,543.558887 C242.719591,543.256959 243.47416,543.307281 243.977206,543.760171 L255.195127,552.767666 C255.245431,552.817987 255.34604,552.868308 255.396345,552.91863 L255.496954,553.019272 C255.547259,553.069593 255.547259,553.069593 255.547259,553.069593 C255.849086,553.37152 256,553.77409 256,554.226981 C256,554.679872 255.849086,555.082441 255.597563,555.384368 L255.496954,555.535332 L255.396345,555.585653 C255.34604,555.635974 255.295736,555.635974 255.245431,555.686296 L244.02751,564.69379 C243.47416,565.09636 242.769896,565.197002 242.115936,564.895075 C241.461977,564.593148 241.05954,563.989293 241.05954,563.335118 C241.05954,562.882227 241.311063,562.429336 241.7135,562.077088 L249.259186,555.988223 L213.995677,555.988223 C212.989585,555.988223 212.235017,555.233405 212.235017,554.226981 C212.235017,553.220557 212.989585,552.465739 213.995677,552.465739 L249.259186,552.465739 L241.7135,546.376874 C241.260758,546.074946 241.05954,545.622056 241.05954,545.118844 C241.05954,544.464668 241.461977,543.860814 242.115936,543.558887 Z M211.933189,573.751606 C212.536844,573.449679 213.291413,573.5 213.794459,573.952891 L225.01238,582.960385 C225.062684,583.010707 225.163293,583.061028 225.213598,583.111349 L225.314207,583.211991 C225.364512,583.262313 225.364512,583.262313 225.364512,583.262313 C225.666339,583.56424 225.817253,583.966809 225.817253,584.4197 C225.817253,584.872591 225.666339,585.275161 225.414816,585.577088 L225.314207,585.728051 L225.213598,585.778373 C225.163293,585.828694 225.112989,585.828694 225.062684,585.879015 L213.844763,594.88651 C213.291413,595.289079 212.587149,595.389722 211.933189,595.087794 C211.27923,594.785867 210.876793,594.182013 210.876793,593.527837 C210.876793,593.074946 211.128316,592.622056 211.530753,592.269807 L219.076439,586.180942 L183.81293,586.180942 C182.806838,586.180942 182.05227,585.426124 182.05227,584.4197 C182.05227,583.413276 182.806838,582.658458 183.81293,582.658458 L219.076439,582.658458 L211.530753,576.569593 C211.078011,576.267666 210.876793,575.814775 210.876793,575.311563 C210.876793,574.657388 211.27923,574.053533 211.933189,573.751606 Z M211.933189,622.412206 C212.536844,622.110278 213.291413,622.210921 213.794459,622.61349 L225.01238,631.620985 C225.062684,631.671306 225.163293,631.721627 225.213598,631.771949 L225.314207,631.872591 C225.364512,631.922912 225.364512,631.922912 225.364512,631.922912 C225.666339,632.224839 225.817253,632.627409 225.817253,633.0803 C225.817253,633.533191 225.666339,633.93576 225.414816,634.237687 L225.314207,634.388651 L225.213598,634.438972 C225.163293,634.489293 225.112989,634.489293 225.062684,634.539615 L213.844763,643.547109 C213.291413,643.949679 212.587149,644.050321 211.933189,643.748394 C211.27923,643.446467 210.876793,642.842612 210.876793,642.188437 C210.876793,641.735546 211.128316,641.282655 211.530753,640.930407 L219.076439,634.841542 L183.81293,634.841542 C182.806838,634.841542 182.05227,634.086724 182.05227,633.0803 C182.05227,632.073876 182.806838,631.319058 183.81293,631.319058 L219.076439,631.319058 L211.530753,625.230193 C211.078011,624.928266 210.876793,624.475375 210.876793,623.972163 C210.876793,623.317987 211.27923,622.714133 211.933189,622.412206 Z M242.115936,204.394004 C242.719591,204.092077 243.47416,204.142398 243.977206,204.595289 L255.195127,213.602784 C255.245431,213.653105 255.34604,213.703426 255.396345,213.753747 L255.496954,213.85439 C255.547259,213.904711 255.547259,213.904711 255.547259,213.904711 C255.849086,214.206638 256,214.609208 256,215.062099 C256,215.514989 255.849086,215.917559 255.597563,216.219486 L255.496954,216.37045 L255.396345,216.420771 C255.34604,216.471092 255.295736,216.471092 255.245431,216.521413 L244.02751,225.528908 C243.47416,225.931478 242.769896,226.03212 242.115936,225.730193 C241.461977,225.428266 241.05954,224.824411 241.05954,224.170236 C241.05954,223.717345 241.311063,223.264454 241.7135,222.912206 L249.259186,216.82334 L213.995677,216.82334 C212.989585,216.82334 212.235017,216.068522 212.235017,215.062099 C212.235017,214.055675 212.989585,213.300857 213.995677,213.300857 L249.259186,213.300857 L241.7135,207.211991 C241.260758,206.910064 241.05954,206.457173 241.05954,205.953961 C241.05954,205.299786 241.461977,204.695931 242.115936,204.394004 Z M211.933189,174.201285 C212.536844,173.899358 213.291413,173.949679 213.844763,174.40257 L225.01238,183.410064 C225.062684,183.460385 225.163293,183.510707 225.213598,183.561028 L225.314207,183.66167 C225.364512,183.711991 225.364512,183.711991 225.364512,183.711991 C225.666339,184.013919 225.817253,184.416488 225.817253,184.869379 C225.817253,185.32227 225.666339,185.724839 225.414816,186.026767 L225.314207,186.17773 L225.213598,186.228051 C225.163293,186.278373 225.112989,186.278373 225.062684,186.328694 L213.844763,195.336188 C213.291413,195.738758 212.587149,195.8394 211.933189,195.537473 C211.27923,195.235546 210.876793,194.631692 210.876793,193.977516 C210.876793,193.524625 211.128316,193.071734 211.530753,192.719486 L219.076439,186.630621 L183.81293,186.630621 C182.806838,186.630621 182.05227,185.875803 182.05227,184.869379 C182.05227,183.862955 182.806838,183.108137 183.81293,183.108137 L219.076439,183.108137 L211.530753,177.019272 C211.078011,176.717345 210.876793,176.264454 210.876793,175.761242 C210.876793,175.107066 211.27923,174.503212 211.933189,174.201285 Z M211.933189,234.586724 C212.536844,234.284797 213.291413,234.335118 213.794459,234.788009 L225.01238,243.795503 C225.062684,243.845824 225.163293,243.896146 225.213598,243.946467 L225.314207,244.047109 C225.364512,244.09743 225.364512,244.09743 225.364512,244.09743 C225.666339,244.399358 225.817253,244.801927 225.817253,245.254818 C225.817253,245.707709 225.666339,246.110278 225.414816,246.412206 L225.314207,246.563169 L225.213598,246.61349 C225.163293,246.663812 225.112989,246.663812 225.062684,246.714133 L213.844763,255.721627 C213.291413,256.124197 212.587149,256.224839 211.933189,255.922912 C211.27923,255.620985 210.876793,255.017131 210.876793,254.362955 C210.876793,253.910064 211.128316,253.457173 211.530753,253.104925 L219.076439,247.01606 L183.81293,247.01606 C182.806838,247.01606 182.05227,246.261242 182.05227,245.254818 C182.05227,244.248394 182.806838,243.493576 183.81293,243.493576 L219.076439,243.493576 L211.530753,237.404711 C211.078011,237.102784 210.876793,236.649893 210.876793,236.146681 C210.876793,235.492505 211.27923,234.888651 211.933189,234.586724 Z M242.115936,313.440043 C242.719591,313.138116 243.47416,313.238758 243.977206,313.641328 L255.195127,322.648822 C255.245431,322.699143 255.34604,322.749465 255.396345,322.799786 L255.496954,322.900428 C255.547259,322.950749 255.547259,322.950749 255.547259,322.950749 C255.849086,323.252677 256,323.655246 256,324.108137 C256,324.561028 255.849086,324.963597 255.597563,325.265525 L255.496954,325.416488 L255.396345,325.466809 C255.34604,325.517131 255.295736,325.517131 255.245431,325.567452 L244.02751,334.574946 C243.47416,334.977516 242.769896,335.078158 242.115936,334.776231 C241.461977,334.474304 241.05954,333.87045 241.05954,333.216274 C241.05954,332.763383 241.311063,332.310493 241.7135,331.958244 L249.259186,325.869379 L213.995677,325.869379 C212.989585,325.869379 212.235017,325.114561 212.235017,324.108137 C212.235017,323.101713 212.989585,322.346895 213.995677,322.346895 L249.259186,322.346895 L241.7135,316.25803 C241.260758,315.956103 241.05954,315.503212 241.05954,315 C241.05954,314.345824 241.461977,313.74197 242.115936,313.440043 Z M211.933189,283.247323 C212.536844,282.945396 213.291413,283.046039 213.794459,283.448608 L225.01238,292.456103 C225.062684,292.506424 225.163293,292.556745 225.213598,292.607066 L225.314207,292.707709 C225.364512,292.75803 225.364512,292.75803 225.364512,292.75803 C225.666339,293.059957 225.817253,293.462527 225.817253,293.915418 C225.817253,294.368308 225.666339,294.770878 225.414816,295.072805 L225.314207,295.223769 L225.213598,295.27409 C225.163293,295.324411 225.112989,295.324411 225.062684,295.374732 L213.844763,304.382227 C213.291413,304.784797 212.587149,304.885439 211.933189,304.583512 C211.27923,304.281585 210.876793,303.67773 210.876793,303.023555 C210.876793,302.570664 211.128316,302.117773 211.530753,301.765525 L219.076439,295.67666 L183.81293,295.67666 C182.806838,295.67666 182.05227,294.921842 182.05227,293.915418 C182.05227,292.908994 182.806838,292.154176 183.81293,292.154176 L219.076439,292.154176 L211.530753,286.06531 C211.078011,285.763383 210.876793,285.310493 210.876793,284.807281 C210.876793,284.153105 211.27923,283.549251 211.933189,283.247323 Z M176.719984,428.524625 C177.373944,428.172377 178.128512,428.273019 178.581254,428.72591 L189.799175,437.733405 C189.849479,437.783726 189.950088,437.834047 190.000393,437.884368 L190.101002,437.985011 C190.151307,438.035332 190.151307,438.035332 190.151307,438.035332 C190.453134,438.337259 190.604048,438.739829 190.604048,439.192719 C190.604048,439.64561 190.453134,440.04818 190.201611,440.350107 L190.101002,440.501071 L190.000393,440.551392 C189.950088,440.601713 189.899784,440.601713 189.849479,440.652034 L178.631558,449.659529 C178.078208,450.062099 177.373944,450.162741 176.719984,449.860814 C176.066025,449.558887 175.663588,448.955032 175.663588,448.300857 C175.663588,447.847966 175.915111,447.395075 176.317548,447.042827 L183.863234,440.953961 L148.599725,440.953961 C147.593633,440.953961 146.839065,440.199143 146.839065,439.192719 C146.839065,438.186296 147.593633,437.431478 148.599725,437.431478 L183.863234,437.431478 L176.317548,431.342612 C175.864806,431.040685 175.663588,430.587794 175.663588,430.084582 C175.663588,429.430407 176.066025,428.826552 176.719984,428.524625 Z M94.7235213,373.976445 C95.3271763,373.674518 96.0817449,373.724839 96.5847907,374.17773 L107.802712,383.185225 C107.853016,383.235546 107.953625,383.285867 108.00393,383.336188 L108.104539,383.436831 C108.154844,383.487152 108.154844,383.487152 108.154844,383.487152 C108.456671,383.789079 108.607585,384.191649 108.607585,384.64454 C108.607585,385.09743 108.456671,385.5 108.205148,385.801927 L108.104539,385.952891 L108.00393,386.003212 C107.953625,386.053533 107.903321,386.053533 107.853016,386.103854 L96.6350953,395.111349 C96.0817449,395.513919 95.3774808,395.614561 94.7235213,395.312634 C94.0695618,395.010707 93.6671252,394.406852 93.6671252,393.752677 C93.6671252,393.299786 93.9186481,392.846895 94.3210847,392.494647 L101.866771,386.405782 L66.6032619,386.405782 C65.5971704,386.405782 64.8426017,385.650964 64.8426017,384.64454 C64.8426017,383.638116 65.5971704,382.883298 66.6032619,382.883298 L101.866771,382.883298 L94.3210847,376.794433 C93.8683435,376.492505 93.6671252,376.039615 93.6671252,375.536403 C93.6671252,374.882227 94.0695618,374.278373 94.7235213,373.976445 Z M64.5407742,343.783726 C65.1444292,343.481799 65.8989978,343.53212 66.4020436,343.985011 L77.6199646,352.992505 C77.6702692,353.042827 77.7708784,353.093148 77.8211829,353.143469 L77.9217921,353.244111 C77.9720967,353.294433 77.9720967,353.294433 77.9720967,353.294433 C78.2739242,353.59636 78.4248379,353.998929 78.4248379,354.45182 C78.4248379,354.904711 78.2739242,355.307281 78.0224013,355.609208 L77.9217921,355.760171 L77.8211829,355.810493 C77.7708784,355.860814 77.7205738,355.860814 77.6702692,355.911135 L66.4523482,364.91863 C65.8989978,365.321199 65.1947337,365.421842 64.5407742,365.119914 C63.8868147,364.817987 63.4843781,364.214133 63.4843781,363.559957 C63.4843781,363.107066 63.735901,362.654176 64.1383376,362.301927 L71.6840244,356.213062 L36.4205148,356.213062 C35.4144233,356.213062 34.6598546,355.458244 34.6598546,354.45182 C34.6598546,353.445396 35.4144233,352.690578 36.4205148,352.690578 L71.6840244,352.690578 L64.1383376,346.601713 C63.6855964,346.299786 63.4843781,345.846895 63.4843781,345.343683 C63.4843781,344.689507 63.8868147,344.085653 64.5407742,343.783726 Z M64.5407742,404.169165 C65.1444292,403.867238 65.8989978,403.917559 66.4020436,404.37045 L77.6199646,413.377944 C77.6702692,413.428266 77.7708784,413.478587 77.8211829,413.528908 L77.9217921,413.62955 C77.9720967,413.679872 77.9720967,413.679872 77.9720967,413.679872 C78.2739242,413.981799 78.4248379,414.384368 78.4248379,414.837259 C78.4248379,415.29015 78.2739242,415.692719 78.0224013,415.994647 L77.9217921,416.14561 L77.8211829,416.195931 C77.7708784,416.246253 77.7205738,416.246253 77.6702692,416.296574 L66.4523482,425.304069 C65.8989978,425.706638 65.1947337,425.807281 64.5407742,425.505353 C63.8868147,425.203426 63.4843781,424.599572 63.4843781,423.945396 C63.4843781,423.492505 63.735901,423.039615 64.1383376,422.687366 L71.6840244,416.598501 L36.4205148,416.598501 C35.4144233,416.598501 34.6598546,415.843683 34.6598546,414.837259 C34.6598546,413.830835 35.4144233,413.076017 36.4205148,413.076017 L71.6840244,413.076017 L64.1383376,406.987152 C63.6855964,406.685225 63.4843781,406.232334 63.4843781,405.729122 C63.4843781,405.074946 63.8868147,404.471092 64.5407742,404.169165 Z M176.719984,373.976445 C177.373944,373.674518 178.128512,373.724839 178.581254,374.17773 L189.799175,383.185225 C189.849479,383.235546 189.950088,383.285867 190.000393,383.336188 L190.101002,383.436831 C190.151307,383.487152 190.151307,383.487152 190.151307,383.487152 C190.453134,383.789079 190.604048,384.191649 190.604048,384.64454 C190.604048,385.09743 190.453134,385.5 190.201611,385.801927 L190.101002,385.952891 L190.000393,386.003212 C189.950088,386.053533 189.899784,386.053533 189.849479,386.103854 L178.631558,395.111349 C178.078208,395.513919 177.373944,395.614561 176.719984,395.312634 C176.066025,395.010707 175.663588,394.406852 175.663588,393.752677 C175.663588,393.299786 175.915111,392.846895 176.317548,392.494647 L183.863234,386.405782 L148.599725,386.405782 C147.593633,386.405782 146.839065,385.650964 146.839065,384.64454 C146.839065,383.638116 147.593633,382.883298 148.599725,382.883298 L183.863234,382.883298 L176.317548,376.794433 C175.864806,376.492505 175.663588,376.039615 175.663588,375.536403 C175.663588,374.882227 176.066025,374.278373 176.719984,373.976445 Z M141.506779,343.783726 C142.160739,343.481799 142.915308,343.53212 143.368049,343.985011 L154.58597,352.992505 C154.636274,353.042827 154.736883,353.093148 154.787188,353.143469 L154.887797,353.244111 C154.938102,353.294433 154.938102,353.294433 154.938102,353.294433 C155.239929,353.59636 155.390843,353.998929 155.390843,354.45182 C155.390843,354.904711 155.239929,355.307281 154.988406,355.609208 L154.887797,355.760171 L154.787188,355.810493 C154.736883,355.860814 154.686579,355.860814 154.636274,355.911135 L143.418353,364.91863 C142.865003,365.321199 142.160739,365.421842 141.506779,365.119914 C140.85282,364.817987 140.450383,364.214133 140.450383,363.559957 C140.450383,363.107066 140.701906,362.654176 141.104343,362.301927 L148.650029,356.213062 L113.38652,356.213062 C112.380428,356.213062 111.62586,355.458244 111.62586,354.45182 C111.62586,353.445396 112.380428,352.690578 113.38652,352.690578 L148.650029,352.690578 L141.104343,346.601713 C140.651601,346.299786 140.450383,345.846895 140.450383,345.343683 C140.450383,344.689507 140.85282,344.085653 141.506779,343.783726 Z M141.506779,404.169165 C142.160739,403.867238 142.915308,403.917559 143.368049,404.37045 L154.58597,413.377944 C154.636274,413.428266 154.736883,413.478587 154.787188,413.528908 L154.887797,413.62955 C154.938102,413.679872 154.938102,413.679872 154.938102,413.679872 C155.239929,413.981799 155.390843,414.384368 155.390843,414.837259 C155.390843,415.29015 155.239929,415.692719 154.988406,415.994647 L154.887797,416.14561 L154.787188,416.195931 C154.736883,416.246253 154.686579,416.246253 154.636274,416.296574 L143.418353,425.304069 C142.865003,425.706638 142.160739,425.807281 141.506779,425.505353 C140.85282,425.203426 140.450383,424.599572 140.450383,423.945396 C140.450383,423.492505 140.701906,423.039615 141.104343,422.687366 L148.650029,416.598501 L113.38652,416.598501 C112.380428,416.598501 111.62586,415.843683 111.62586,414.837259 C111.62586,413.830835 112.380428,413.076017 113.38652,413.076017 L148.650029,413.076017 L141.104343,406.987152 C140.651601,406.685225 140.450383,406.232334 140.450383,405.729122 C140.450383,405.074946 140.85282,404.471092 141.506779,404.169165 Z M94.7235213,483.022484 C95.3271763,482.720557 96.0817449,482.821199 96.5847907,483.223769 L107.802712,492.231263 C107.853016,492.281585 107.953625,492.331906 108.00393,492.382227 L108.104539,492.482869 C108.154844,492.533191 108.154844,492.533191 108.154844,492.533191 C108.456671,492.835118 108.607585,493.237687 108.607585,493.690578 C108.607585,494.143469 108.456671,494.546039 108.205148,494.847966 L108.104539,494.998929 L108.00393,495.049251 C107.953625,495.099572 107.903321,495.099572 107.853016,495.149893 L96.6350953,504.157388 C96.0817449,504.559957 95.3774808,504.6606 94.7235213,504.358672 C94.0695618,504.056745 93.6671252,503.452891 93.6671252,502.798715 C93.6671252,502.345824 93.9186481,501.892934 94.3210847,501.540685 L101.866771,495.45182 L66.6032619,495.45182 C65.5971704,495.45182 64.8426017,494.697002 64.8426017,493.690578 C64.8426017,492.684154 65.5971704,491.929336 66.6032619,491.929336 L101.866771,491.929336 L94.3210847,485.840471 C93.8683435,485.538544 93.6671252,485.085653 93.6671252,484.582441 C93.6671252,483.928266 94.0695618,483.324411 94.7235213,483.022484 Z M64.5407742,452.829764 C65.1444292,452.527837 65.8989978,452.62848 66.4020436,453.031049 L77.6199646,462.038544 C77.6702692,462.088865 77.7708784,462.139186 77.8211829,462.189507 L77.9217921,462.29015 C77.9720967,462.340471 77.9720967,462.340471 77.9720967,462.340471 C78.2739242,462.642398 78.4248379,463.044968 78.4248379,463.497859 C78.4248379,463.950749 78.2739242,464.353319 78.0224013,464.655246 L77.9217921,464.80621 L77.8211829,464.856531 C77.7708784,464.906852 77.7205738,464.906852 77.6702692,464.957173 L66.4523482,473.964668 C65.8989978,474.367238 65.1947337,474.46788 64.5407742,474.165953 C63.8868147,473.864026 63.4843781,473.260171 63.4843781,472.605996 C63.4843781,472.153105 63.735901,471.700214 64.1383376,471.347966 L71.6840244,465.259101 L36.4205148,465.259101 C35.4144233,465.259101 34.6598546,464.504283 34.6598546,463.497859 C34.6598546,462.491435 35.4144233,461.736617 36.4205148,461.736617 L71.6840244,461.736617 L64.1383376,455.647752 C63.6855964,455.345824 63.4843781,454.892934 63.4843781,454.389722 C63.4843781,453.735546 63.8868147,453.131692 64.5407742,452.829764 Z M64.5407742,513.215203 C65.1444292,512.913276 65.8989978,513.013919 66.4020436,513.416488 L77.6199646,522.423983 C77.6702692,522.474304 77.7708784,522.524625 77.8211829,522.574946 L77.9217921,522.675589 C77.9720967,522.72591 77.9720967,522.72591 77.9720967,522.72591 C78.2739242,523.027837 78.4248379,523.430407 78.4248379,523.883298 C78.4248379,524.336188 78.2739242,524.738758 78.0224013,525.040685 L77.9217921,525.191649 L77.8211829,525.24197 C77.7708784,525.292291 77.7205738,525.292291 77.6702692,525.342612 L66.4523482,534.350107 C65.8989978,534.752677 65.1947337,534.853319 64.5407742,534.551392 C63.8868147,534.249465 63.4843781,533.64561 63.4843781,532.991435 C63.4843781,532.538544 63.735901,532.085653 64.1383376,531.733405 L71.6840244,525.64454 L36.4205148,525.64454 C35.4144233,525.64454 34.6598546,524.889722 34.6598546,523.883298 C34.6598546,522.876874 35.4144233,522.122056 36.4205148,522.122056 L71.6840244,522.122056 L64.1383376,516.033191 C63.6855964,515.731263 63.4843781,515.278373 63.4843781,514.775161 C63.4843781,514.120985 63.8868147,513.517131 64.5407742,513.215203 Z M176.719984,483.022484 C177.373944,482.720557 178.128512,482.821199 178.581254,483.223769 L189.799175,492.231263 C189.849479,492.281585 189.950088,492.331906 190.000393,492.382227 L190.101002,492.482869 C190.151307,492.533191 190.151307,492.533191 190.151307,492.533191 C190.453134,492.835118 190.604048,493.237687 190.604048,493.690578 C190.604048,494.143469 190.453134,494.546039 190.201611,494.847966 L190.101002,494.998929 L190.000393,495.049251 C189.950088,495.099572 189.899784,495.099572 189.849479,495.149893 L178.631558,504.157388 C178.078208,504.559957 177.373944,504.6606 176.719984,504.358672 C176.066025,504.056745 175.663588,503.452891 175.663588,502.798715 C175.663588,502.345824 175.915111,501.892934 176.317548,501.540685 L183.863234,495.45182 L148.599725,495.45182 C147.593633,495.45182 146.839065,494.697002 146.839065,493.690578 C146.839065,492.684154 147.593633,491.929336 148.599725,491.929336 L183.863234,491.929336 L176.317548,485.840471 C175.864806,485.538544 175.663588,485.085653 175.663588,484.582441 C175.663588,483.928266 176.066025,483.324411 176.719984,483.022484 Z M141.506779,452.829764 C142.160739,452.527837 142.915308,452.62848 143.368049,453.031049 L154.58597,462.038544 C154.636274,462.088865 154.736883,462.139186 154.787188,462.189507 L154.887797,462.29015 C154.938102,462.340471 154.938102,462.340471 154.938102,462.340471 C155.239929,462.642398 155.390843,463.044968 155.390843,463.497859 C155.390843,463.950749 155.239929,464.353319 154.988406,464.655246 L154.887797,464.80621 L154.787188,464.856531 C154.736883,464.906852 154.686579,464.906852 154.636274,464.957173 L143.418353,473.964668 C142.865003,474.367238 142.160739,474.46788 141.506779,474.165953 C140.85282,473.864026 140.450383,473.260171 140.450383,472.605996 C140.450383,472.153105 140.701906,471.700214 141.104343,471.347966 L148.650029,465.259101 L113.38652,465.259101 C112.380428,465.259101 111.62586,464.504283 111.62586,463.497859 C111.62586,462.491435 112.380428,461.736617 113.38652,461.736617 L148.650029,461.736617 L141.104343,455.647752 C140.651601,455.345824 140.450383,454.892934 140.450383,454.389722 C140.450383,453.735546 140.85282,453.131692 141.506779,452.829764 Z M141.506779,513.215203 C142.160739,512.913276 142.915308,513.013919 143.368049,513.416488 L154.58597,522.423983 C154.636274,522.474304 154.736883,522.524625 154.787188,522.574946 L154.887797,522.675589 C154.938102,522.72591 154.938102,522.72591 154.938102,522.72591 C155.239929,523.027837 155.390843,523.430407 155.390843,523.883298 C155.390843,524.336188 155.239929,524.738758 154.988406,525.040685 L154.887797,525.191649 L154.787188,525.24197 C154.736883,525.292291 154.686579,525.292291 154.636274,525.342612 L143.418353,534.350107 C142.865003,534.752677 142.160739,534.853319 141.506779,534.551392 C140.85282,534.249465 140.450383,533.64561 140.450383,532.991435 C140.450383,532.538544 140.701906,532.085653 141.104343,531.733405 L148.650029,525.64454 L113.38652,525.64454 C112.380428,525.64454 111.62586,524.889722 111.62586,523.883298 C111.62586,522.876874 112.380428,522.122056 113.38652,522.122056 L148.650029,522.122056 L141.104343,516.033191 C140.651601,515.731263 140.450383,515.278373 140.450383,514.775161 C140.450383,514.120985 140.85282,513.517131 141.506779,513.215203 Z M176.719984,598.107066 C177.373944,597.754818 178.128512,597.85546 178.581254,598.308351 L189.799175,607.315846 C189.849479,607.366167 189.950088,607.416488 190.000393,607.466809 L190.101002,607.567452 C190.151307,607.617773 190.151307,607.617773 190.151307,607.617773 C190.453134,607.9197 190.604048,608.32227 190.604048,608.775161 C190.604048,609.228051 190.453134,609.630621 190.201611,609.932548 L190.101002,610.083512 L190.000393,610.133833 C189.950088,610.184154 189.899784,610.184154 189.849479,610.234475 L178.631558,619.24197 C178.078208,619.64454 177.373944,619.745182 176.719984,619.443255 C176.066025,619.141328 175.663588,618.537473 175.663588,617.883298 C175.663588,617.430407 175.915111,616.977516 176.317548,616.625268 L183.863234,610.536403 L148.599725,610.536403 C147.593633,610.536403 146.839065,609.781585 146.839065,608.775161 C146.839065,607.768737 147.593633,607.013919 148.599725,607.013919 L183.863234,607.013919 L176.317548,600.925054 C175.864806,600.623126 175.663588,600.170236 175.663588,599.667024 C175.663588,599.012848 176.066025,598.408994 176.719984,598.107066 Z M94.7235213,543.558887 C95.3271763,543.256959 96.0817449,543.307281 96.5847907,543.760171 L107.802712,552.767666 C107.853016,552.817987 107.953625,552.868308 108.00393,552.91863 L108.104539,553.019272 C108.154844,553.069593 108.154844,553.069593 108.154844,553.069593 C108.456671,553.37152 108.607585,553.77409 108.607585,554.226981 C108.607585,554.679872 108.456671,555.082441 108.205148,555.384368 L108.104539,555.535332 L108.00393,555.585653 C107.953625,555.635974 107.903321,555.635974 107.853016,555.686296 L96.6350953,564.69379 C96.0817449,565.09636 95.3774808,565.197002 94.7235213,564.895075 C94.0695618,564.593148 93.6671252,563.989293 93.6671252,563.335118 C93.6671252,562.882227 93.9186481,562.429336 94.3210847,562.077088 L101.866771,555.988223 L66.6032619,555.988223 C65.5971704,555.988223 64.8426017,555.233405 64.8426017,554.226981 C64.8426017,553.220557 65.5971704,552.465739 66.6032619,552.465739 L101.866771,552.465739 L94.3210847,546.376874 C93.8683435,546.074946 93.6671252,545.622056 93.6671252,545.118844 C93.6671252,544.464668 94.0695618,543.860814 94.7235213,543.558887 Z M64.5407742,573.751606 C65.1444292,573.449679 65.8989978,573.5 66.4020436,573.952891 L77.6199646,582.960385 C77.6702692,583.010707 77.7708784,583.061028 77.8211829,583.111349 L77.9217921,583.211991 C77.9720967,583.262313 77.9720967,583.262313 77.9720967,583.262313 C78.2739242,583.56424 78.4248379,583.966809 78.4248379,584.4197 C78.4248379,584.872591 78.2739242,585.275161 78.0224013,585.577088 L77.9217921,585.728051 L77.8211829,585.778373 C77.7708784,585.828694 77.7205738,585.828694 77.6702692,585.879015 L66.4523482,594.88651 C65.8989978,595.289079 65.1947337,595.389722 64.5407742,595.087794 C63.8868147,594.785867 63.4843781,594.182013 63.4843781,593.527837 C63.4843781,593.074946 63.735901,592.622056 64.1383376,592.269807 L71.6840244,586.180942 L36.4205148,586.180942 C35.4144233,586.180942 34.6598546,585.426124 34.6598546,584.4197 C34.6598546,583.413276 35.4144233,582.658458 36.4205148,582.658458 L71.6840244,582.658458 L64.1383376,576.569593 C63.6855964,576.267666 63.4843781,575.814775 63.4843781,575.311563 C63.4843781,574.657388 63.8868147,574.053533 64.5407742,573.751606 Z M176.719984,543.558887 C177.373944,543.256959 178.128512,543.307281 178.581254,543.760171 L189.799175,552.767666 C189.849479,552.817987 189.950088,552.868308 190.000393,552.91863 L190.101002,553.019272 C190.151307,553.069593 190.151307,553.069593 190.151307,553.069593 C190.453134,553.37152 190.604048,553.77409 190.604048,554.226981 C190.604048,554.679872 190.453134,555.082441 190.201611,555.384368 L190.101002,555.535332 L190.000393,555.585653 C189.950088,555.635974 189.899784,555.635974 189.849479,555.686296 L178.631558,564.69379 C178.078208,565.09636 177.373944,565.197002 176.719984,564.895075 C176.066025,564.593148 175.663588,563.989293 175.663588,563.335118 C175.663588,562.882227 175.915111,562.429336 176.317548,562.077088 L183.863234,555.988223 L148.599725,555.988223 C147.593633,555.988223 146.839065,555.233405 146.839065,554.226981 C146.839065,553.220557 147.593633,552.465739 148.599725,552.465739 L183.863234,552.465739 L176.317548,546.376874 C175.864806,546.074946 175.663588,545.622056 175.663588,545.118844 C175.663588,544.464668 176.066025,543.860814 176.719984,543.558887 Z M141.506779,573.751606 C142.160739,573.449679 142.915308,573.5 143.368049,573.952891 L154.58597,582.960385 C154.636274,583.010707 154.736883,583.061028 154.787188,583.111349 L154.887797,583.211991 C154.938102,583.262313 154.938102,583.262313 154.938102,583.262313 C155.239929,583.56424 155.390843,583.966809 155.390843,584.4197 C155.390843,584.872591 155.239929,585.275161 154.988406,585.577088 L154.887797,585.728051 L154.787188,585.778373 C154.736883,585.828694 154.686579,585.828694 154.636274,585.879015 L143.418353,594.88651 C142.865003,595.289079 142.160739,595.389722 141.506779,595.087794 C140.85282,594.785867 140.450383,594.182013 140.450383,593.527837 C140.450383,593.074946 140.701906,592.622056 141.104343,592.269807 L148.650029,586.180942 L113.38652,586.180942 C112.380428,586.180942 111.62586,585.426124 111.62586,584.4197 C111.62586,583.413276 112.380428,582.658458 113.38652,582.658458 L148.650029,582.658458 L141.104343,576.569593 C140.651601,576.267666 140.450383,575.814775 140.450383,575.311563 C140.450383,574.657388 140.85282,574.053533 141.506779,573.751606 Z M64.5407742,622.412206 C65.1444292,622.110278 65.8989978,622.210921 66.4020436,622.61349 L77.6199646,631.620985 C77.6702692,631.671306 77.7708784,631.721627 77.8211829,631.771949 L77.9217921,631.872591 C77.9720967,631.922912 77.9720967,631.922912 77.9720967,631.922912 C78.2739242,632.224839 78.4248379,632.627409 78.4248379,633.0803 C78.4248379,633.533191 78.2739242,633.93576 78.0224013,634.237687 L77.9217921,634.388651 L77.8211829,634.438972 C77.7708784,634.489293 77.7205738,634.489293 77.6702692,634.539615 L66.4523482,643.547109 C65.8989978,643.949679 65.1947337,644.050321 64.5407742,643.748394 C63.8868147,643.446467 63.4843781,642.842612 63.4843781,642.188437 C63.4843781,641.735546 63.735901,641.282655 64.1383376,640.930407 L71.6840244,634.841542 L36.4205148,634.841542 C35.4144233,634.841542 34.6598546,634.086724 34.6598546,633.0803 C34.6598546,632.073876 35.4144233,631.319058 36.4205148,631.319058 L71.6840244,631.319058 L64.1383376,625.230193 C63.6855964,624.928266 63.4843781,624.475375 63.4843781,623.972163 C63.4843781,623.317987 63.8868147,622.714133 64.5407742,622.412206 Z M141.506779,622.412206 C142.160739,622.110278 142.915308,622.210921 143.368049,622.61349 L154.58597,631.620985 C154.636274,631.671306 154.736883,631.721627 154.787188,631.771949 L154.887797,631.872591 C154.938102,631.922912 154.938102,631.922912 154.938102,631.922912 C155.239929,632.224839 155.390843,632.627409 155.390843,633.0803 C155.390843,633.533191 155.239929,633.93576 154.988406,634.237687 L154.887797,634.388651 L154.787188,634.438972 C154.736883,634.489293 154.686579,634.489293 154.636274,634.539615 L143.418353,643.547109 C142.865003,643.949679 142.160739,644.050321 141.506779,643.748394 C140.85282,643.446467 140.450383,642.842612 140.450383,642.188437 C140.450383,641.735546 140.701906,641.282655 141.104343,640.930407 L148.650029,634.841542 L113.38652,634.841542 C112.380428,634.841542 111.62586,634.086724 111.62586,633.0803 C111.62586,632.073876 112.380428,631.319058 113.38652,631.319058 L148.650029,631.319058 L141.104343,625.230193 C140.651601,624.928266 140.450383,624.475375 140.450383,623.972163 C140.450383,623.317987 140.85282,622.714133 141.506779,622.412206 Z M176.719984,258.942184 C177.373944,258.589936 178.128512,258.690578 178.581254,259.143469 L189.799175,268.150964 C189.849479,268.201285 189.950088,268.251606 190.000393,268.301927 L190.101002,268.40257 C190.151307,268.452891 190.151307,268.452891 190.151307,268.452891 C190.453134,268.754818 190.604048,269.157388 190.604048,269.610278 C190.604048,270.063169 190.453134,270.465739 190.201611,270.767666 L190.101002,270.91863 L190.000393,270.968951 C189.950088,271.019272 189.899784,271.019272 189.849479,271.069593 L178.631558,280.077088 C178.078208,280.479657 177.373944,280.5803 176.719984,280.278373 C176.066025,279.976445 175.663588,279.372591 175.663588,278.718415 C175.663588,278.265525 175.915111,277.812634 176.317548,277.460385 L183.863234,271.37152 L148.599725,271.37152 C147.593633,271.37152 146.839065,270.616702 146.839065,269.610278 C146.839065,268.603854 147.593633,267.849036 148.599725,267.849036 L183.863234,267.849036 L176.317548,261.760171 C175.864806,261.458244 175.663588,261.005353 175.663588,260.502141 C175.663588,259.847966 176.066025,259.244111 176.719984,258.942184 Z M94.7235213,204.394004 C95.3271763,204.092077 96.0817449,204.142398 96.5847907,204.595289 L107.802712,213.602784 C107.853016,213.653105 107.953625,213.703426 108.00393,213.753747 L108.104539,213.85439 C108.154844,213.904711 108.154844,213.904711 108.154844,213.904711 C108.456671,214.206638 108.607585,214.609208 108.607585,215.062099 C108.607585,215.514989 108.456671,215.917559 108.205148,216.219486 L108.104539,216.37045 L108.00393,216.420771 C107.953625,216.471092 107.903321,216.471092 107.853016,216.521413 L96.6350953,225.528908 C96.0817449,225.931478 95.3774808,226.03212 94.7235213,225.730193 C94.0695618,225.428266 93.6671252,224.824411 93.6671252,224.170236 C93.6671252,223.717345 93.9186481,223.264454 94.3210847,222.912206 L101.866771,216.82334 L66.6032619,216.82334 C65.5971704,216.82334 64.8426017,216.068522 64.8426017,215.062099 C64.8426017,214.055675 65.5971704,213.300857 66.6032619,213.300857 L101.866771,213.300857 L94.3210847,207.211991 C93.8683435,206.910064 93.6671252,206.457173 93.6671252,205.953961 C93.6671252,205.299786 94.0695618,204.695931 94.7235213,204.394004 Z M64.5407742,174.201285 C65.1444292,173.899358 65.8989978,173.949679 66.4523482,174.40257 L77.6199646,183.410064 C77.6702692,183.460385 77.7708784,183.510707 77.8211829,183.561028 L77.9217921,183.66167 C77.9720967,183.711991 77.9720967,183.711991 77.9720967,183.711991 C78.2739242,184.013919 78.4248379,184.416488 78.4248379,184.869379 C78.4248379,185.32227 78.2739242,185.724839 78.0224013,186.026767 L77.9217921,186.17773 L77.8211829,186.228051 C77.7708784,186.278373 77.7205738,186.278373 77.6702692,186.328694 L66.4523482,195.336188 C65.8989978,195.738758 65.1947337,195.8394 64.5407742,195.537473 C63.8868147,195.235546 63.4843781,194.631692 63.4843781,193.977516 C63.4843781,193.524625 63.735901,193.071734 64.1383376,192.719486 L71.6840244,186.630621 L36.4205148,186.630621 C35.4144233,186.630621 34.6598546,185.875803 34.6598546,184.869379 C34.6598546,183.862955 35.4144233,183.108137 36.4205148,183.108137 L71.6840244,183.108137 L64.1383376,177.019272 C63.6855964,176.717345 63.4843781,176.264454 63.4843781,175.761242 C63.4843781,175.107066 63.8868147,174.503212 64.5407742,174.201285 Z M64.5407742,234.586724 C65.1444292,234.284797 65.8989978,234.335118 66.4020436,234.788009 L77.6199646,243.795503 C77.6702692,243.845824 77.7708784,243.896146 77.8211829,243.946467 L77.9217921,244.047109 C77.9720967,244.09743 77.9720967,244.09743 77.9720967,244.09743 C78.2739242,244.399358 78.4248379,244.801927 78.4248379,245.254818 C78.4248379,245.707709 78.2739242,246.110278 78.0224013,246.412206 L77.9217921,246.563169 L77.8211829,246.61349 C77.7708784,246.663812 77.7205738,246.663812 77.6702692,246.714133 L66.4523482,255.721627 C65.8989978,256.124197 65.1947337,256.224839 64.5407742,255.922912 C63.8868147,255.620985 63.4843781,255.017131 63.4843781,254.362955 C63.4843781,253.910064 63.735901,253.457173 64.1383376,253.104925 L71.6840244,247.01606 L36.4205148,247.01606 C35.4144233,247.01606 34.6598546,246.261242 34.6598546,245.254818 C34.6598546,244.248394 35.4144233,243.493576 36.4205148,243.493576 L71.6840244,243.493576 L64.1383376,237.404711 C63.6855964,237.102784 63.4843781,236.649893 63.4843781,236.146681 C63.4843781,235.492505 63.8868147,234.888651 64.5407742,234.586724 Z M176.719984,204.394004 C177.373944,204.092077 178.128512,204.142398 178.581254,204.595289 L189.799175,213.602784 C189.849479,213.653105 189.950088,213.703426 190.000393,213.753747 L190.101002,213.85439 C190.151307,213.904711 190.151307,213.904711 190.151307,213.904711 C190.453134,214.206638 190.604048,214.609208 190.604048,215.062099 C190.604048,215.514989 190.453134,215.917559 190.201611,216.219486 L190.101002,216.37045 L190.000393,216.420771 C189.950088,216.471092 189.899784,216.471092 189.849479,216.521413 L178.631558,225.528908 C178.078208,225.931478 177.373944,226.03212 176.719984,225.730193 C176.066025,225.428266 175.663588,224.824411 175.663588,224.170236 C175.663588,223.717345 175.915111,223.264454 176.317548,222.912206 L183.863234,216.82334 L148.599725,216.82334 C147.593633,216.82334 146.839065,216.068522 146.839065,215.062099 C146.839065,214.055675 147.593633,213.300857 148.599725,213.300857 L183.863234,213.300857 L176.317548,207.211991 C175.864806,206.910064 175.663588,206.457173 175.663588,205.953961 C175.663588,205.299786 176.066025,204.695931 176.719984,204.394004 Z M141.506779,174.201285 C142.160739,173.899358 142.915308,173.949679 143.418353,174.40257 L154.58597,183.410064 C154.636274,183.460385 154.736883,183.510707 154.787188,183.561028 L154.887797,183.66167 C154.938102,183.711991 154.938102,183.711991 154.938102,183.711991 C155.239929,184.013919 155.390843,184.416488 155.390843,184.869379 C155.390843,185.32227 155.239929,185.724839 154.988406,186.026767 L154.887797,186.17773 L154.787188,186.228051 C154.736883,186.278373 154.686579,186.278373 154.636274,186.328694 L143.418353,195.336188 C142.865003,195.738758 142.160739,195.8394 141.506779,195.537473 C140.85282,195.235546 140.450383,194.631692 140.450383,193.977516 C140.450383,193.524625 140.701906,193.071734 141.104343,192.719486 L148.650029,186.630621 L113.38652,186.630621 C112.380428,186.630621 111.62586,185.875803 111.62586,184.869379 C111.62586,183.862955 112.380428,183.108137 113.38652,183.108137 L148.650029,183.108137 L141.104343,177.019272 C140.651601,176.717345 140.450383,176.264454 140.450383,175.761242 C140.450383,175.107066 140.85282,174.503212 141.506779,174.201285 Z M141.506779,234.586724 C142.160739,234.284797 142.915308,234.335118 143.368049,234.788009 L154.58597,243.795503 C154.636274,243.845824 154.736883,243.896146 154.787188,243.946467 L154.887797,244.047109 C154.938102,244.09743 154.938102,244.09743 154.938102,244.09743 C155.239929,244.399358 155.390843,244.801927 155.390843,245.254818 C155.390843,245.707709 155.239929,246.110278 154.988406,246.412206 L154.887797,246.563169 L154.787188,246.61349 C154.736883,246.663812 154.686579,246.663812 154.636274,246.714133 L143.418353,255.721627 C142.865003,256.124197 142.160739,256.224839 141.506779,255.922912 C140.85282,255.620985 140.450383,255.017131 140.450383,254.362955 C140.450383,253.910064 140.701906,253.457173 141.104343,253.104925 L148.650029,247.01606 L113.38652,247.01606 C112.380428,247.01606 111.62586,246.261242 111.62586,245.254818 C111.62586,244.248394 112.380428,243.493576 113.38652,243.493576 L148.650029,243.493576 L141.104343,237.404711 C140.651601,237.102784 140.450383,236.649893 140.450383,236.146681 C140.450383,235.492505 140.85282,234.888651 141.506779,234.586724 Z M94.7235213,313.440043 C95.3271763,313.138116 96.0817449,313.238758 96.5847907,313.641328 L107.802712,322.648822 C107.853016,322.699143 107.953625,322.749465 108.00393,322.799786 L108.104539,322.900428 C108.154844,322.950749 108.154844,322.950749 108.154844,322.950749 C108.456671,323.252677 108.607585,323.655246 108.607585,324.108137 C108.607585,324.561028 108.456671,324.963597 108.205148,325.265525 L108.104539,325.416488 L108.00393,325.466809 C107.953625,325.517131 107.903321,325.517131 107.853016,325.567452 L96.6350953,334.574946 C96.0817449,334.977516 95.3774808,335.078158 94.7235213,334.776231 C94.0695618,334.474304 93.6671252,333.87045 93.6671252,333.216274 C93.6671252,332.763383 93.9186481,332.310493 94.3210847,331.958244 L101.866771,325.869379 L66.6032619,325.869379 C65.5971704,325.869379 64.8426017,325.114561 64.8426017,324.108137 C64.8426017,323.101713 65.5971704,322.346895 66.6032619,322.346895 L101.866771,322.346895 L94.3210847,316.25803 C93.8683435,315.956103 93.6671252,315.503212 93.6671252,315 C93.6671252,314.345824 94.0695618,313.74197 94.7235213,313.440043 Z M64.5407742,283.247323 C65.1444292,282.945396 65.8989978,283.046039 66.4020436,283.448608 L77.6199646,292.456103 C77.6702692,292.506424 77.7708784,292.556745 77.8211829,292.607066 L77.9217921,292.707709 C77.9720967,292.75803 77.9720967,292.75803 77.9720967,292.75803 C78.2739242,293.059957 78.4248379,293.462527 78.4248379,293.915418 C78.4248379,294.368308 78.2739242,294.770878 78.0224013,295.072805 L77.9217921,295.223769 L77.8211829,295.27409 C77.7708784,295.324411 77.7205738,295.324411 77.6702692,295.374732 L66.4523482,304.382227 C65.8989978,304.784797 65.1947337,304.885439 64.5407742,304.583512 C63.8868147,304.281585 63.4843781,303.67773 63.4843781,303.023555 C63.4843781,302.570664 63.735901,302.117773 64.1383376,301.765525 L71.6840244,295.67666 L36.4205148,295.67666 C35.4144233,295.67666 34.6598546,294.921842 34.6598546,293.915418 C34.6598546,292.908994 35.4144233,292.154176 36.4205148,292.154176 L71.6840244,292.154176 L64.1383376,286.06531 C63.6855964,285.763383 63.4843781,285.310493 63.4843781,284.807281 C63.4843781,284.153105 63.8868147,283.549251 64.5407742,283.247323 Z M176.719984,313.440043 C177.373944,313.138116 178.128512,313.238758 178.581254,313.641328 L189.799175,322.648822 C189.849479,322.699143 189.950088,322.749465 190.000393,322.799786 L190.101002,322.900428 C190.151307,322.950749 190.151307,322.950749 190.151307,322.950749 C190.453134,323.252677 190.604048,323.655246 190.604048,324.108137 C190.604048,324.561028 190.453134,324.963597 190.201611,325.265525 L190.101002,325.416488 L190.000393,325.466809 C189.950088,325.517131 189.899784,325.517131 189.849479,325.567452 L178.631558,334.574946 C178.078208,334.977516 177.373944,335.078158 176.719984,334.776231 C176.066025,334.474304 175.663588,333.87045 175.663588,333.216274 C175.663588,332.763383 175.915111,332.310493 176.317548,331.958244 L183.863234,325.869379 L148.599725,325.869379 C147.593633,325.869379 146.839065,325.114561 146.839065,324.108137 C146.839065,323.101713 147.593633,322.346895 148.599725,322.346895 L183.863234,322.346895 L176.317548,316.25803 C175.864806,315.956103 175.663588,315.503212 175.663588,315 C175.663588,314.345824 176.066025,313.74197 176.719984,313.440043 Z M141.506779,283.247323 C142.160739,282.945396 142.915308,283.046039 143.368049,283.448608 L154.58597,292.456103 C154.636274,292.506424 154.736883,292.556745 154.787188,292.607066 L154.887797,292.707709 C154.938102,292.75803 154.938102,292.75803 154.938102,292.75803 C155.239929,293.059957 155.390843,293.462527 155.390843,293.915418 C155.390843,294.368308 155.239929,294.770878 154.988406,295.072805 L154.887797,295.223769 L154.787188,295.27409 C154.736883,295.324411 154.686579,295.324411 154.636274,295.374732 L143.418353,304.382227 C142.865003,304.784797 142.160739,304.885439 141.506779,304.583512 C140.85282,304.281585 140.450383,303.67773 140.450383,303.023555 C140.450383,302.570664 140.701906,302.117773 141.104343,301.765525 L148.650029,295.67666 L113.38652,295.67666 C112.380428,295.67666 111.62586,294.921842 111.62586,293.915418 C111.62586,292.908994 112.380428,292.154176 113.38652,292.154176 L148.650029,292.154176 L141.104343,286.06531 C140.651601,285.763383 140.450383,285.310493 140.450383,284.807281 C140.450383,284.153105 140.85282,283.549251 141.506779,283.247323 Z M29.8306151,428.524625 C30.4845746,428.172377 31.2391433,428.273019 31.742189,428.72591 L42.96011,437.733405 C43.0104146,437.783726 43.1110238,437.834047 43.1613284,437.884368 L43.2619375,437.985011 C43.3122421,438.035332 43.3122421,438.035332 43.3122421,438.035332 C43.6140696,438.337259 43.7649833,438.739829 43.7649833,439.192719 C43.7649833,439.64561 43.6140696,440.04818 43.3625467,440.350107 L43.2619375,440.501071 L43.1613284,440.551392 C43.1110238,440.601713 43.0607192,440.601713 43.0104146,440.652034 L31.7924936,449.659529 C31.2391433,450.062099 30.5348792,450.162741 29.8809196,449.860814 C29.2269601,449.558887 28.8245235,448.955032 28.8245235,448.300857 C28.8245235,447.847966 29.0760464,447.395075 29.478483,447.042827 L37.0241698,440.953961 L1.76066025,440.953961 C0.754568678,440.953961 0,440.199143 0,439.192719 C0,438.186296 0.754568678,437.431478 1.76066025,437.431478 L36.9738652,437.431478 L29.4281784,431.342612 C28.9754372,431.040685 28.7742189,430.587794 28.7742189,430.084582 C28.7742189,429.430407 29.1766555,428.826552 29.8306151,428.524625 Z M29.8306151,373.976445 C30.4845746,373.674518 31.2391433,373.724839 31.742189,374.17773 L42.96011,383.185225 C43.0104146,383.235546 43.1110238,383.285867 43.1613284,383.336188 L43.2619375,383.436831 C43.3122421,383.487152 43.3122421,383.487152 43.3122421,383.487152 C43.6140696,383.789079 43.7649833,384.191649 43.7649833,384.64454 C43.7649833,385.09743 43.6140696,385.5 43.3625467,385.801927 L43.2619375,385.952891 L43.1613284,386.003212 C43.1110238,386.053533 43.0607192,386.053533 43.0104146,386.103854 L31.7924936,395.111349 C31.2391433,395.513919 30.5348792,395.614561 29.8809196,395.312634 C29.2269601,395.010707 28.8245235,394.406852 28.8245235,393.752677 C28.8245235,393.299786 29.0760464,392.846895 29.478483,392.494647 L37.0241698,386.405782 L1.76066025,386.405782 C0.754568678,386.405782 0,385.650964 0,384.64454 C0,383.638116 0.754568678,382.883298 1.76066025,382.883298 L36.9738652,382.883298 L29.4281784,376.794433 C28.9754372,376.492505 28.7742189,376.039615 28.7742189,375.536403 C28.7742189,374.882227 29.1766555,374.278373 29.8306151,373.976445 Z M29.8306151,483.022484 C30.4845746,482.720557 31.2391433,482.821199 31.742189,483.223769 L42.96011,492.231263 C43.0104146,492.281585 43.1110238,492.331906 43.1613284,492.382227 L43.2619375,492.482869 C43.3122421,492.533191 43.3122421,492.533191 43.3122421,492.533191 C43.6140696,492.835118 43.7649833,493.237687 43.7649833,493.690578 C43.7649833,494.143469 43.6140696,494.546039 43.3625467,494.847966 L43.2619375,494.998929 L43.1613284,495.049251 C43.1110238,495.099572 43.0607192,495.099572 43.0104146,495.149893 L31.7924936,504.157388 C31.2391433,504.559957 30.5348792,504.6606 29.8809196,504.358672 C29.2269601,504.056745 28.8245235,503.452891 28.8245235,502.798715 C28.8245235,502.345824 29.0760464,501.892934 29.478483,501.540685 L37.0241698,495.45182 L1.76066025,495.45182 C0.754568678,495.45182 0,494.697002 0,493.690578 C0,492.684154 0.754568678,491.929336 1.76066025,491.929336 L36.9738652,491.929336 L29.4281784,485.840471 C28.9754372,485.538544 28.7742189,485.085653 28.7742189,484.582441 C28.7742189,483.928266 29.1766555,483.324411 29.8306151,483.022484 Z M29.8306151,598.107066 C30.4845746,597.754818 31.2391433,597.85546 31.742189,598.308351 L42.96011,607.315846 C43.0104146,607.366167 43.1110238,607.416488 43.1613284,607.466809 L43.2619375,607.567452 C43.3122421,607.617773 43.3122421,607.617773 43.3122421,607.617773 C43.6140696,607.9197 43.7649833,608.32227 43.7649833,608.775161 C43.7649833,609.228051 43.6140696,609.630621 43.3625467,609.932548 L43.2619375,610.083512 L43.1613284,610.133833 C43.1110238,610.184154 43.0607192,610.184154 43.0104146,610.234475 L31.7924936,619.24197 C31.2391433,619.64454 30.5348792,619.745182 29.8809196,619.443255 C29.2269601,619.141328 28.8245235,618.537473 28.8245235,617.883298 C28.8245235,617.430407 29.0760464,616.977516 29.478483,616.625268 L37.0241698,610.536403 L1.76066025,610.536403 C0.754568678,610.536403 0,609.781585 0,608.775161 C0,607.768737 0.754568678,607.013919 1.76066025,607.013919 L36.9738652,607.013919 L29.4281784,600.925054 C28.9754372,600.623126 28.7742189,600.170236 28.7742189,599.667024 C28.7742189,599.012848 29.1766555,598.408994 29.8306151,598.107066 Z M29.8306151,543.558887 C30.4845746,543.256959 31.2391433,543.307281 31.742189,543.760171 L42.96011,552.767666 C43.0104146,552.817987 43.1110238,552.868308 43.1613284,552.91863 L43.2619375,553.019272 C43.3122421,553.069593 43.3122421,553.069593 43.3122421,553.069593 C43.6140696,553.37152 43.7649833,553.77409 43.7649833,554.226981 C43.7649833,554.679872 43.6140696,555.082441 43.3625467,555.384368 L43.2619375,555.535332 L43.1613284,555.585653 C43.1110238,555.635974 43.0607192,555.635974 43.0104146,555.686296 L31.7924936,564.69379 C31.2391433,565.09636 30.5348792,565.197002 29.8809196,564.895075 C29.2269601,564.593148 28.8245235,563.989293 28.8245235,563.335118 C28.8245235,562.882227 29.0760464,562.429336 29.478483,562.077088 L37.0241698,555.988223 L1.76066025,555.988223 C0.754568678,555.988223 0,555.233405 0,554.226981 C0,553.220557 0.754568678,552.465739 1.76066025,552.465739 L36.9738652,552.465739 L29.4281784,546.376874 C28.9754372,546.074946 28.7742189,545.622056 28.7742189,545.118844 C28.7742189,544.464668 29.1766555,543.860814 29.8306151,543.558887 Z M29.8306151,258.942184 C30.4845746,258.589936 31.2391433,258.690578 31.742189,259.143469 L42.96011,268.150964 C43.0104146,268.201285 43.1110238,268.251606 43.1613284,268.301927 L43.2619375,268.40257 C43.3122421,268.452891 43.3122421,268.452891 43.3122421,268.452891 C43.6140696,268.754818 43.7649833,269.157388 43.7649833,269.610278 C43.7649833,270.063169 43.6140696,270.465739 43.3625467,270.767666 L43.2619375,270.91863 L43.1613284,270.968951 C43.1110238,271.019272 43.0607192,271.019272 43.0104146,271.069593 L31.7924936,280.077088 C31.2391433,280.479657 30.5348792,280.5803 29.8809196,280.278373 C29.2269601,279.976445 28.8245235,279.372591 28.8245235,278.718415 C28.8245235,278.265525 29.0760464,277.812634 29.478483,277.460385 L37.0241698,271.37152 L1.76066025,271.37152 C0.754568678,271.37152 0,270.616702 0,269.610278 C0,268.603854 0.754568678,267.849036 1.76066025,267.849036 L36.9738652,267.849036 L29.4281784,261.760171 C28.9754372,261.458244 28.7742189,261.005353 28.7742189,260.502141 C28.7742189,259.847966 29.1766555,259.244111 29.8306151,258.942184 Z M29.8306151,204.394004 C30.4845746,204.092077 31.2391433,204.142398 31.742189,204.595289 L42.96011,213.602784 C43.0104146,213.653105 43.1110238,213.703426 43.1613284,213.753747 L43.2619375,213.85439 C43.3122421,213.904711 43.3122421,213.904711 43.3122421,213.904711 C43.6140696,214.206638 43.7649833,214.609208 43.7649833,215.062099 C43.7649833,215.514989 43.6140696,215.917559 43.3625467,216.219486 L43.2619375,216.37045 L43.1613284,216.420771 C43.1110238,216.471092 43.0607192,216.471092 43.0104146,216.521413 L31.7924936,225.528908 C31.2391433,225.931478 30.5348792,226.03212 29.8809196,225.730193 C29.2269601,225.428266 28.8245235,224.824411 28.8245235,224.170236 C28.8245235,223.717345 29.0760464,223.264454 29.478483,222.912206 L37.0241698,216.82334 L1.76066025,216.82334 C0.754568678,216.82334 0,216.068522 0,215.062099 C0,214.055675 0.754568678,213.300857 1.76066025,213.300857 L36.9738652,213.300857 L29.4281784,207.211991 C28.9754372,206.910064 28.7742189,206.457173 28.7742189,205.953961 C28.7742189,205.299786 29.1766555,204.695931 29.8306151,204.394004 Z M29.8306151,313.440043 C30.4845746,313.138116 31.2391433,313.238758 31.742189,313.641328 L42.96011,322.648822 C43.0104146,322.699143 43.1110238,322.749465 43.1613284,322.799786 L43.2619375,322.900428 C43.3122421,322.950749 43.3122421,322.950749 43.3122421,322.950749 C43.6140696,323.252677 43.7649833,323.655246 43.7649833,324.108137 C43.7649833,324.561028 43.6140696,324.963597 43.3625467,325.265525 L43.2619375,325.416488 L43.1613284,325.466809 C43.1110238,325.517131 43.0607192,325.517131 43.0104146,325.567452 L31.7924936,334.574946 C31.2391433,334.977516 30.5348792,335.078158 29.8809196,334.776231 C29.2269601,334.474304 28.8245235,333.87045 28.8245235,333.216274 C28.8245235,332.763383 29.0760464,332.310493 29.478483,331.958244 L37.0241698,325.869379 L1.76066025,325.869379 C0.754568678,325.869379 0,325.114561 0,324.108137 C0,323.101713 0.754568678,322.346895 1.76066025,322.346895 L36.9738652,322.346895 L29.4281784,316.25803 C28.9754372,315.956103 28.7742189,315.503212 28.7742189,315 C28.7742189,314.345824 29.1766555,313.74197 29.8306151,313.440043 Z" id="arrow-pattern-left"></path>
        </g>
    </g>
</svg>