<?xml version="1.0" encoding="UTF-8"?>
<svg width="256px" height="470px" viewBox="0 0 256 470" version="1.1" xmlns="http://www.w3.org/2000/svg" xmlns:xlink="http://www.w3.org/1999/xlink">
    <!-- Generator: Sketch 50.2 (55047) - http://www.bohemiancoding.com/sketch -->
    <title>arrow-pattern-right</title>
    <desc>Created with Sketch.</desc>
    <defs></defs>
    <g id="Page-1" stroke="none" stroke-width="1" fill="none" fill-rule="evenodd">
        <g id="Desktop-HD" transform="translate(-1184.000000, -174.000000)" fill="#000000" fill-rule="nonzero">
            <path d="M1197.88406,373.965467 C1198.53802,374.267394 1198.94046,374.871249 1198.94046,375.525424 C1198.94046,376.028636 1198.73924,376.481527 1198.2865,376.783454 L1190.74081,382.872319 L1226.00432,382.872319 C1227.01041,382.872319 1227.76498,383.627137 1227.76498,384.633561 C1227.76498,385.639985 1227.01041,386.394803 1226.00432,386.394803 L1190.74081,386.394803 L1198.2865,392.483668 C1198.68894,392.835917 1198.94046,393.288807 1198.94046,393.741698 C1198.94046,394.395874 1198.53802,394.999728 1197.88406,395.301655 C1197.2301,395.603583 1196.52584,395.50294 1195.97249,395.100371 L1184.75457,386.092876 C1184.70426,386.042555 1184.65396,386.042555 1184.60365,385.992234 L1184.50305,385.941912 L1184.40244,385.790949 C1184.15091,385.489022 1184,385.086452 1184,384.633561 C1184,384.18067 1184.15091,383.778101 1184.45274,383.476174 L1184.60365,383.32521 C1184.65396,383.274889 1184.75457,383.224568 1184.80487,383.174246 L1196.02279,374.166752 C1196.52584,373.713861 1197.28041,373.66354 1197.88406,373.965467 Z M1228.06681,343.772748 C1228.72077,344.074675 1229.12321,344.678529 1229.12321,345.332705 C1229.12321,345.835917 1228.92199,346.288807 1228.46925,346.590735 L1220.92356,352.6796 L1256.18707,352.6796 C1257.19316,352.6796 1257.94773,353.434418 1257.94773,354.440842 C1257.94773,355.447266 1257.19316,356.202084 1256.18707,356.202084 L1220.92356,356.202084 L1228.46925,362.290949 C1228.87168,362.643197 1229.12321,363.096088 1229.12321,363.548979 C1229.12321,364.203154 1228.72077,364.807009 1228.06681,365.108936 C1227.41285,365.410863 1226.70859,365.310221 1226.15524,364.907651 L1214.93732,355.900157 C1214.88701,355.849835 1214.83671,355.849835 1214.7864,355.799514 L1214.68579,355.749193 L1214.58518,355.598229 C1214.33366,355.296302 1214.18275,354.893733 1214.18275,354.440842 C1214.18275,353.987951 1214.33366,353.585381 1214.63549,353.283454 L1214.7864,353.132491 C1214.83671,353.082169 1214.93732,353.031848 1214.98762,352.981527 L1226.20554,343.974032 C1226.70859,343.521142 1227.46316,343.47082 1228.06681,343.772748 Z M1228.06681,404.158186 C1228.72077,404.460114 1229.12321,405.063968 1229.12321,405.718144 C1229.12321,406.221356 1228.92199,406.674246 1228.46925,406.976174 L1220.92356,413.065039 L1256.18707,413.065039 C1257.19316,413.065039 1257.94773,413.819857 1257.94773,414.826281 C1257.94773,415.832705 1257.19316,416.587523 1256.18707,416.587523 L1220.92356,416.587523 L1228.46925,422.676388 C1228.87168,423.028636 1229.12321,423.481527 1229.12321,423.934418 C1229.12321,424.588593 1228.72077,425.192448 1228.06681,425.494375 C1227.41285,425.796302 1226.70859,425.69566 1226.15524,425.29309 L1214.93732,416.285595 C1214.88701,416.235274 1214.83671,416.235274 1214.7864,416.184953 L1214.68579,416.134632 L1214.58518,415.983668 C1214.33366,415.681741 1214.18275,415.279171 1214.18275,414.826281 C1214.18275,414.37339 1214.33366,413.97082 1214.63549,413.668893 L1214.7864,413.51793 C1214.83671,413.467608 1214.93732,413.417287 1214.98762,413.366966 L1226.20554,404.359471 C1226.70859,403.90658 1227.46316,403.856259 1228.06681,404.158186 Z M1197.88406,483.011506 C1198.53802,483.313433 1198.94046,483.917287 1198.94046,484.571463 C1198.94046,485.074675 1198.73924,485.527566 1198.2865,485.829493 L1190.74081,491.918358 L1226.00432,491.918358 C1227.01041,491.918358 1227.76498,492.673176 1227.76498,493.6796 C1227.76498,494.686024 1227.01041,495.440842 1226.00432,495.440842 L1190.74081,495.440842 L1198.2865,501.529707 C1198.68894,501.881955 1198.94046,502.334846 1198.94046,502.787737 C1198.94046,503.441912 1198.53802,504.045767 1197.88406,504.347694 C1197.2301,504.649621 1196.52584,504.548979 1195.97249,504.146409 L1184.75457,495.138915 C1184.70426,495.088593 1184.65396,495.088593 1184.60365,495.038272 L1184.50305,494.987951 L1184.40244,494.836987 C1184.15091,494.53506 1184,494.132491 1184,493.6796 C1184,493.226709 1184.15091,492.824139 1184.45274,492.522212 L1184.60365,492.371249 C1184.65396,492.320927 1184.75457,492.270606 1184.80487,492.220285 L1196.02279,483.21279 C1196.52584,482.810221 1197.28041,482.709578 1197.88406,483.011506 Z M1228.06681,452.818786 C1228.72077,453.120713 1229.12321,453.724568 1229.12321,454.378743 C1229.12321,454.881955 1228.92199,455.334846 1228.46925,455.636773 L1220.92356,461.725638 L1256.18707,461.725638 C1257.19316,461.725638 1257.94773,462.480456 1257.94773,463.48688 C1257.94773,464.493304 1257.19316,465.248122 1256.18707,465.248122 L1220.92356,465.248122 L1228.46925,471.336987 C1228.87168,471.689236 1229.12321,472.142127 1229.12321,472.595017 C1229.12321,473.249193 1228.72077,473.853047 1228.06681,474.154974 C1227.41285,474.456902 1226.70859,474.356259 1226.15524,473.95369 L1214.93732,464.946195 C1214.88701,464.895874 1214.83671,464.895874 1214.7864,464.845553 L1214.68579,464.795231 L1214.58518,464.644268 C1214.33366,464.342341 1214.18275,463.939771 1214.18275,463.48688 C1214.18275,463.033989 1214.33366,462.63142 1214.63549,462.329493 L1214.7864,462.178529 C1214.83671,462.128208 1214.93732,462.077887 1214.98762,462.027566 L1226.20554,453.020071 C1226.70859,452.617501 1227.46316,452.516859 1228.06681,452.818786 Z M1228.06681,513.204225 C1228.72077,513.506152 1229.12321,514.110007 1229.12321,514.764182 C1229.12321,515.267394 1228.92199,515.720285 1228.46925,516.022212 L1220.92356,522.111077 L1256.18707,522.111077 C1257.19316,522.111077 1257.94773,522.865895 1257.94773,523.872319 C1257.94773,524.878743 1257.19316,525.633561 1256.18707,525.633561 L1220.92356,525.633561 L1228.46925,531.722426 C1228.87168,532.074675 1229.12321,532.527566 1229.12321,532.980456 C1229.12321,533.634632 1228.72077,534.238486 1228.06681,534.540413 C1227.41285,534.842341 1226.70859,534.741698 1226.15524,534.339129 L1214.93732,525.331634 C1214.88701,525.281313 1214.83671,525.281313 1214.7864,525.230992 L1214.68579,525.18067 L1214.58518,525.029707 C1214.33366,524.72778 1214.18275,524.32521 1214.18275,523.872319 C1214.18275,523.419428 1214.33366,523.016859 1214.63549,522.714932 L1214.7864,522.563968 C1214.83671,522.513647 1214.93732,522.463326 1214.98762,522.413004 L1226.20554,513.40551 C1226.70859,513.00294 1227.46316,512.902298 1228.06681,513.204225 Z M1197.88406,543.547908 C1198.53802,543.849835 1198.94046,544.45369 1198.94046,545.107865 C1198.94046,545.611077 1198.73924,546.063968 1198.2865,546.365895 L1190.74081,552.45476 L1226.00432,552.45476 C1227.01041,552.45476 1227.76498,553.209578 1227.76498,554.216002 C1227.76498,555.222426 1227.01041,555.977244 1226.00432,555.977244 L1190.74081,555.977244 L1198.2865,562.066109 C1198.68894,562.418358 1198.94046,562.871249 1198.94046,563.324139 C1198.94046,563.978315 1198.53802,564.582169 1197.88406,564.884097 C1197.2301,565.186024 1196.52584,565.085381 1195.97249,564.682812 L1184.75457,555.675317 C1184.70426,555.624996 1184.65396,555.624996 1184.60365,555.574675 L1184.50305,555.524354 L1184.40244,555.37339 C1184.15091,555.071463 1184,554.668893 1184,554.216002 C1184,553.763112 1184.15091,553.360542 1184.45274,553.058615 L1184.60365,552.907651 C1184.65396,552.85733 1184.75457,552.807009 1184.80487,552.756688 L1196.02279,543.749193 C1196.52584,543.296302 1197.28041,543.245981 1197.88406,543.547908 Z M1228.06681,573.740628 C1228.72077,574.042555 1229.12321,574.646409 1229.12321,575.300585 C1229.12321,575.803797 1228.92199,576.256688 1228.46925,576.558615 L1220.92356,582.64748 L1256.18707,582.64748 C1257.19316,582.64748 1257.94773,583.402298 1257.94773,584.408722 C1257.94773,585.415146 1257.19316,586.169964 1256.18707,586.169964 L1220.92356,586.169964 L1228.46925,592.258829 C1228.87168,592.611077 1229.12321,593.063968 1229.12321,593.516859 C1229.12321,594.171034 1228.72077,594.774889 1228.06681,595.076816 C1227.41285,595.378743 1226.70859,595.278101 1226.15524,594.875531 L1214.93732,585.868037 C1214.88701,585.817715 1214.83671,585.817715 1214.7864,585.767394 L1214.68579,585.717073 L1214.58518,585.566109 C1214.33366,585.264182 1214.18275,584.861613 1214.18275,584.408722 C1214.18275,583.955831 1214.33366,583.553261 1214.63549,583.251334 L1214.7864,583.100371 C1214.83671,583.050049 1214.93732,582.999728 1214.98762,582.949407 L1226.20554,573.941912 C1226.70859,573.489022 1227.46316,573.4387 1228.06681,573.740628 Z M1228.06681,622.401227 C1228.72077,622.703154 1229.12321,623.307009 1229.12321,623.961184 C1229.12321,624.464396 1228.92199,624.917287 1228.46925,625.219214 L1220.92356,631.308079 L1256.18707,631.308079 C1257.19316,631.308079 1257.94773,632.062897 1257.94773,633.069321 C1257.94773,634.075745 1257.19316,634.830563 1256.18707,634.830563 L1220.92356,634.830563 L1228.46925,640.919428 C1228.87168,641.271677 1229.12321,641.724568 1229.12321,642.177458 C1229.12321,642.831634 1228.72077,643.435488 1228.06681,643.737416 C1227.41285,644.039343 1226.70859,643.9387 1226.15524,643.536131 L1214.93732,634.528636 C1214.88701,634.478315 1214.83671,634.478315 1214.7864,634.427994 L1214.68579,634.377673 L1214.58518,634.226709 C1214.33366,633.924782 1214.18275,633.522212 1214.18275,633.069321 C1214.18275,632.616431 1214.33366,632.213861 1214.63549,631.911934 L1214.7864,631.76097 C1214.83671,631.710649 1214.93732,631.660328 1214.98762,631.610007 L1226.20554,622.602512 C1226.70859,622.199942 1227.46316,622.0993 1228.06681,622.401227 Z M1197.88406,204.383026 C1198.53802,204.684953 1198.94046,205.288807 1198.94046,205.942983 C1198.94046,206.446195 1198.73924,206.899086 1198.2865,207.201013 L1190.74081,213.289878 L1226.00432,213.289878 C1227.01041,213.289878 1227.76498,214.044696 1227.76498,215.05112 C1227.76498,216.057544 1227.01041,216.812362 1226.00432,216.812362 L1190.74081,216.812362 L1198.2865,222.901227 C1198.68894,223.253476 1198.94046,223.706366 1198.94046,224.159257 C1198.94046,224.813433 1198.53802,225.417287 1197.88406,225.719214 C1197.2301,226.021142 1196.52584,225.920499 1195.97249,225.51793 L1184.75457,216.510435 C1184.70426,216.460114 1184.65396,216.460114 1184.60365,216.409792 L1184.50305,216.359471 L1184.40244,216.208508 C1184.15091,215.90658 1184,215.504011 1184,215.05112 C1184,214.598229 1184.15091,214.19566 1184.45274,213.893733 L1184.60365,213.742769 C1184.65396,213.692448 1184.75457,213.642127 1184.80487,213.591805 L1196.02279,204.584311 C1196.52584,204.13142 1197.28041,204.081099 1197.88406,204.383026 Z M1228.06681,174.190306 C1228.72077,174.492234 1229.12321,175.096088 1229.12321,175.750264 C1229.12321,176.253476 1228.92199,176.706366 1228.46925,177.008294 L1220.92356,183.097159 L1256.18707,183.097159 C1257.19316,183.097159 1257.94773,183.851977 1257.94773,184.858401 C1257.94773,185.864825 1257.19316,186.619643 1256.18707,186.619643 L1220.92356,186.619643 L1228.46925,192.708508 C1228.87168,193.060756 1229.12321,193.513647 1229.12321,193.966538 C1229.12321,194.620713 1228.72077,195.224568 1228.06681,195.526495 C1227.41285,195.828422 1226.70859,195.72778 1226.15524,195.32521 L1214.93732,186.317715 C1214.88701,186.267394 1214.83671,186.267394 1214.7864,186.217073 L1214.68579,186.166752 L1214.58518,186.015788 C1214.33366,185.713861 1214.18275,185.311291 1214.18275,184.858401 C1214.18275,184.40551 1214.33366,184.00294 1214.63549,183.701013 L1214.7864,183.550049 C1214.83671,183.499728 1214.93732,183.449407 1214.98762,183.399086 L1226.15524,174.391591 C1226.70859,173.9387 1227.46316,173.888379 1228.06681,174.190306 Z M1228.06681,234.575745 C1228.72077,234.877673 1229.12321,235.481527 1229.12321,236.135703 C1229.12321,236.638915 1228.92199,237.091805 1228.46925,237.393733 L1220.92356,243.482598 L1256.18707,243.482598 C1257.19316,243.482598 1257.94773,244.237416 1257.94773,245.24384 C1257.94773,246.250264 1257.19316,247.005082 1256.18707,247.005082 L1220.92356,247.005082 L1228.46925,253.093947 C1228.87168,253.446195 1229.12321,253.899086 1229.12321,254.351977 C1229.12321,255.006152 1228.72077,255.610007 1228.06681,255.911934 C1227.41285,256.213861 1226.70859,256.113219 1226.15524,255.710649 L1214.93732,246.703154 C1214.88701,246.652833 1214.83671,246.652833 1214.7864,246.602512 L1214.68579,246.552191 L1214.58518,246.401227 C1214.33366,246.0993 1214.18275,245.69673 1214.18275,245.24384 C1214.18275,244.790949 1214.33366,244.388379 1214.63549,244.086452 L1214.7864,243.935488 C1214.83671,243.885167 1214.93732,243.834846 1214.98762,243.784525 L1226.20554,234.77703 C1226.70859,234.324139 1227.46316,234.273818 1228.06681,234.575745 Z M1197.88406,313.429064 C1198.53802,313.730992 1198.94046,314.334846 1198.94046,314.989022 C1198.94046,315.492234 1198.73924,315.945124 1198.2865,316.247052 L1190.74081,322.335917 L1226.00432,322.335917 C1227.01041,322.335917 1227.76498,323.090735 1227.76498,324.097159 C1227.76498,325.103583 1227.01041,325.858401 1226.00432,325.858401 L1190.74081,325.858401 L1198.2865,331.947266 C1198.68894,332.299514 1198.94046,332.752405 1198.94046,333.205296 C1198.94046,333.859471 1198.53802,334.463326 1197.88406,334.765253 C1197.2301,335.06718 1196.52584,334.966538 1195.97249,334.563968 L1184.75457,325.556473 C1184.70426,325.506152 1184.65396,325.506152 1184.60365,325.455831 L1184.50305,325.40551 L1184.40244,325.254546 C1184.15091,324.952619 1184,324.550049 1184,324.097159 C1184,323.644268 1184.15091,323.241698 1184.45274,322.939771 L1184.60365,322.788807 C1184.65396,322.738486 1184.75457,322.688165 1184.80487,322.637844 L1196.02279,313.630349 C1196.52584,313.22778 1197.28041,313.127137 1197.88406,313.429064 Z M1228.06681,283.236345 C1228.72077,283.538272 1229.12321,284.142127 1229.12321,284.796302 C1229.12321,285.299514 1228.92199,285.752405 1228.46925,286.054332 L1220.92356,292.143197 L1256.18707,292.143197 C1257.19316,292.143197 1257.94773,292.898015 1257.94773,293.904439 C1257.94773,294.910863 1257.19316,295.665681 1256.18707,295.665681 L1220.92356,295.665681 L1228.46925,301.754546 C1228.87168,302.106795 1229.12321,302.559685 1229.12321,303.012576 C1229.12321,303.666752 1228.72077,304.270606 1228.06681,304.572533 C1227.41285,304.874461 1226.70859,304.773818 1226.15524,304.371249 L1214.93732,295.363754 C1214.88701,295.313433 1214.83671,295.313433 1214.7864,295.263112 L1214.68579,295.21279 L1214.58518,295.061827 C1214.33366,294.7599 1214.18275,294.35733 1214.18275,293.904439 C1214.18275,293.451548 1214.33366,293.048979 1214.63549,292.747052 L1214.7864,292.596088 C1214.83671,292.545767 1214.93732,292.495446 1214.98762,292.445124 L1226.20554,283.43763 C1226.70859,283.03506 1227.46316,282.934418 1228.06681,283.236345 Z M1263.28002,428.513647 C1263.93398,428.815574 1264.33641,429.419428 1264.33641,430.073604 C1264.33641,430.576816 1264.13519,431.029707 1263.68245,431.331634 L1256.13677,437.420499 L1291.40028,437.420499 C1292.40637,437.420499 1293.16094,438.175317 1293.16094,439.181741 C1293.16094,440.188165 1292.40637,440.942983 1291.40028,440.942983 L1256.13677,440.942983 L1263.68245,447.031848 C1264.08489,447.384097 1264.33641,447.836987 1264.33641,448.289878 C1264.33641,448.944054 1263.93398,449.547908 1263.28002,449.849835 C1262.62606,450.151763 1261.92179,450.05112 1261.36844,449.648551 L1250.15052,440.641056 C1250.10022,440.590735 1250.04991,440.590735 1249.99961,440.540413 L1249.899,440.490092 L1249.79839,440.339129 C1249.54687,440.037201 1249.39595,439.634632 1249.39595,439.181741 C1249.39595,438.72885 1249.54687,438.326281 1249.84869,438.024354 L1249.99961,437.87339 C1250.04991,437.823069 1250.15052,437.772748 1250.20083,437.722426 L1261.41875,428.714932 C1261.87149,428.262041 1262.62606,428.161398 1263.28002,428.513647 Z M1345.27648,373.965467 C1345.93044,374.267394 1346.33287,374.871249 1346.33287,375.525424 C1346.33287,376.028636 1346.13166,376.481527 1345.67892,376.783454 L1338.13323,382.872319 L1373.39674,382.872319 C1374.40283,382.872319 1375.1574,383.627137 1375.1574,384.633561 C1375.1574,385.639985 1374.40283,386.394803 1373.39674,386.394803 L1338.13323,386.394803 L1345.67892,392.483668 C1346.08135,392.835917 1346.33287,393.288807 1346.33287,393.741698 C1346.33287,394.395874 1345.93044,394.999728 1345.27648,395.301655 C1344.62252,395.603583 1343.91826,395.50294 1343.3649,395.100371 L1332.14698,386.092876 C1332.09668,386.042555 1332.04637,386.042555 1331.99607,385.992234 L1331.89546,385.941912 L1331.79485,385.790949 C1331.54333,385.489022 1331.39242,385.086452 1331.39242,384.633561 C1331.39242,384.18067 1331.54333,383.778101 1331.84516,383.476174 L1331.99607,383.32521 C1332.04637,383.274889 1332.14698,383.224568 1332.19729,383.174246 L1343.41521,374.166752 C1343.91826,373.713861 1344.67282,373.66354 1345.27648,373.965467 Z M1375.45923,343.772748 C1376.11319,344.074675 1376.51562,344.678529 1376.51562,345.332705 C1376.51562,345.835917 1376.3144,346.288807 1375.86166,346.590735 L1368.31598,352.6796 L1403.57949,352.6796 C1404.58558,352.6796 1405.34015,353.434418 1405.34015,354.440842 C1405.34015,355.447266 1404.58558,356.202084 1403.57949,356.202084 L1368.31598,356.202084 L1375.86166,362.290949 C1376.2641,362.643197 1376.51562,363.096088 1376.51562,363.548979 C1376.51562,364.203154 1376.11319,364.807009 1375.45923,365.108936 C1374.80527,365.410863 1374.101,365.310221 1373.54765,364.907651 L1362.32973,355.900157 C1362.27943,355.849835 1362.22912,355.849835 1362.17882,355.799514 L1362.07821,355.749193 L1361.9776,355.598229 C1361.72608,355.296302 1361.57516,354.893733 1361.57516,354.440842 C1361.57516,353.987951 1361.72608,353.585381 1362.0279,353.283454 L1362.17882,353.132491 C1362.22912,353.082169 1362.32973,353.031848 1362.38004,352.981527 L1373.59796,343.974032 C1374.101,343.521142 1374.85557,343.47082 1375.45923,343.772748 Z M1375.45923,404.158186 C1376.11319,404.460114 1376.51562,405.063968 1376.51562,405.718144 C1376.51562,406.221356 1376.3144,406.674246 1375.86166,406.976174 L1368.31598,413.065039 L1403.57949,413.065039 C1404.58558,413.065039 1405.34015,413.819857 1405.34015,414.826281 C1405.34015,415.832705 1404.58558,416.587523 1403.57949,416.587523 L1368.31598,416.587523 L1375.86166,422.676388 C1376.2641,423.028636 1376.51562,423.481527 1376.51562,423.934418 C1376.51562,424.588593 1376.11319,425.192448 1375.45923,425.494375 C1374.80527,425.796302 1374.101,425.69566 1373.54765,425.29309 L1362.32973,416.285595 C1362.27943,416.235274 1362.22912,416.235274 1362.17882,416.184953 L1362.07821,416.134632 L1361.9776,415.983668 C1361.72608,415.681741 1361.57516,415.279171 1361.57516,414.826281 C1361.57516,414.37339 1361.72608,413.97082 1362.0279,413.668893 L1362.17882,413.51793 C1362.22912,413.467608 1362.32973,413.417287 1362.38004,413.366966 L1373.59796,404.359471 C1374.101,403.90658 1374.85557,403.856259 1375.45923,404.158186 Z M1263.28002,373.965467 C1263.93398,374.267394 1264.33641,374.871249 1264.33641,375.525424 C1264.33641,376.028636 1264.13519,376.481527 1263.68245,376.783454 L1256.13677,382.872319 L1291.40028,382.872319 C1292.40637,382.872319 1293.16094,383.627137 1293.16094,384.633561 C1293.16094,385.639985 1292.40637,386.394803 1291.40028,386.394803 L1256.13677,386.394803 L1263.68245,392.483668 C1264.08489,392.835917 1264.33641,393.288807 1264.33641,393.741698 C1264.33641,394.395874 1263.93398,394.999728 1263.28002,395.301655 C1262.62606,395.603583 1261.92179,395.50294 1261.36844,395.100371 L1250.15052,386.092876 C1250.10022,386.042555 1250.04991,386.042555 1249.99961,385.992234 L1249.899,385.941912 L1249.79839,385.790949 C1249.54687,385.489022 1249.39595,385.086452 1249.39595,384.633561 C1249.39595,384.18067 1249.54687,383.778101 1249.84869,383.476174 L1249.99961,383.32521 C1250.04991,383.274889 1250.15052,383.224568 1250.20083,383.174246 L1261.41875,374.166752 C1261.87149,373.713861 1262.62606,373.66354 1263.28002,373.965467 Z M1298.49322,343.772748 C1299.14718,344.074675 1299.54962,344.678529 1299.54962,345.332705 C1299.54962,345.835917 1299.3484,346.288807 1298.89566,346.590735 L1291.34997,352.6796 L1326.61348,352.6796 C1327.61957,352.6796 1328.37414,353.434418 1328.37414,354.440842 C1328.37414,355.447266 1327.61957,356.202084 1326.61348,356.202084 L1291.34997,356.202084 L1298.89566,362.290949 C1299.29809,362.643197 1299.54962,363.096088 1299.54962,363.548979 C1299.54962,364.203154 1299.14718,364.807009 1298.49322,365.108936 C1297.83926,365.410863 1297.135,365.310221 1296.58165,364.907651 L1285.36373,355.900157 C1285.31342,355.849835 1285.26312,355.849835 1285.21281,355.799514 L1285.1122,355.749193 L1285.01159,355.598229 C1284.76007,355.296302 1284.60916,354.893733 1284.60916,354.440842 C1284.60916,353.987951 1284.76007,353.585381 1285.0619,353.283454 L1285.21281,353.132491 C1285.26312,353.082169 1285.36373,353.031848 1285.41403,352.981527 L1296.63195,343.974032 C1297.08469,343.521142 1297.83926,343.47082 1298.49322,343.772748 Z M1298.49322,404.158186 C1299.14718,404.460114 1299.54962,405.063968 1299.54962,405.718144 C1299.54962,406.221356 1299.3484,406.674246 1298.89566,406.976174 L1291.34997,413.065039 L1326.61348,413.065039 C1327.61957,413.065039 1328.37414,413.819857 1328.37414,414.826281 C1328.37414,415.832705 1327.61957,416.587523 1326.61348,416.587523 L1291.34997,416.587523 L1298.89566,422.676388 C1299.29809,423.028636 1299.54962,423.481527 1299.54962,423.934418 C1299.54962,424.588593 1299.14718,425.192448 1298.49322,425.494375 C1297.83926,425.796302 1297.135,425.69566 1296.58165,425.29309 L1285.36373,416.285595 C1285.31342,416.235274 1285.26312,416.235274 1285.21281,416.184953 L1285.1122,416.134632 L1285.01159,415.983668 C1284.76007,415.681741 1284.60916,415.279171 1284.60916,414.826281 C1284.60916,414.37339 1284.76007,413.97082 1285.0619,413.668893 L1285.21281,413.51793 C1285.26312,413.467608 1285.36373,413.417287 1285.41403,413.366966 L1296.63195,404.359471 C1297.08469,403.90658 1297.83926,403.856259 1298.49322,404.158186 Z M1345.27648,483.011506 C1345.93044,483.313433 1346.33287,483.917287 1346.33287,484.571463 C1346.33287,485.074675 1346.13166,485.527566 1345.67892,485.829493 L1338.13323,491.918358 L1373.39674,491.918358 C1374.40283,491.918358 1375.1574,492.673176 1375.1574,493.6796 C1375.1574,494.686024 1374.40283,495.440842 1373.39674,495.440842 L1338.13323,495.440842 L1345.67892,501.529707 C1346.08135,501.881955 1346.33287,502.334846 1346.33287,502.787737 C1346.33287,503.441912 1345.93044,504.045767 1345.27648,504.347694 C1344.62252,504.649621 1343.91826,504.548979 1343.3649,504.146409 L1332.14698,495.138915 C1332.09668,495.088593 1332.04637,495.088593 1331.99607,495.038272 L1331.89546,494.987951 L1331.79485,494.836987 C1331.54333,494.53506 1331.39242,494.132491 1331.39242,493.6796 C1331.39242,493.226709 1331.54333,492.824139 1331.84516,492.522212 L1331.99607,492.371249 C1332.04637,492.320927 1332.14698,492.270606 1332.19729,492.220285 L1343.41521,483.21279 C1343.91826,482.810221 1344.67282,482.709578 1345.27648,483.011506 Z M1375.45923,452.818786 C1376.11319,453.120713 1376.51562,453.724568 1376.51562,454.378743 C1376.51562,454.881955 1376.3144,455.334846 1375.86166,455.636773 L1368.31598,461.725638 L1403.57949,461.725638 C1404.58558,461.725638 1405.34015,462.480456 1405.34015,463.48688 C1405.34015,464.493304 1404.58558,465.248122 1403.57949,465.248122 L1368.31598,465.248122 L1375.86166,471.336987 C1376.2641,471.689236 1376.51562,472.142127 1376.51562,472.595017 C1376.51562,473.249193 1376.11319,473.853047 1375.45923,474.154974 C1374.80527,474.456902 1374.101,474.356259 1373.54765,473.95369 L1362.32973,464.946195 C1362.27943,464.895874 1362.22912,464.895874 1362.17882,464.845553 L1362.07821,464.795231 L1361.9776,464.644268 C1361.72608,464.342341 1361.57516,463.939771 1361.57516,463.48688 C1361.57516,463.033989 1361.72608,462.63142 1362.0279,462.329493 L1362.17882,462.178529 C1362.22912,462.128208 1362.32973,462.077887 1362.38004,462.027566 L1373.59796,453.020071 C1374.101,452.617501 1374.85557,452.516859 1375.45923,452.818786 Z M1375.45923,513.204225 C1376.11319,513.506152 1376.51562,514.110007 1376.51562,514.764182 C1376.51562,515.267394 1376.3144,515.720285 1375.86166,516.022212 L1368.31598,522.111077 L1403.57949,522.111077 C1404.58558,522.111077 1405.34015,522.865895 1405.34015,523.872319 C1405.34015,524.878743 1404.58558,525.633561 1403.57949,525.633561 L1368.31598,525.633561 L1375.86166,531.722426 C1376.2641,532.074675 1376.51562,532.527566 1376.51562,532.980456 C1376.51562,533.634632 1376.11319,534.238486 1375.45923,534.540413 C1374.80527,534.842341 1374.101,534.741698 1373.54765,534.339129 L1362.32973,525.331634 C1362.27943,525.281313 1362.22912,525.281313 1362.17882,525.230992 L1362.07821,525.18067 L1361.9776,525.029707 C1361.72608,524.72778 1361.57516,524.32521 1361.57516,523.872319 C1361.57516,523.419428 1361.72608,523.016859 1362.0279,522.714932 L1362.17882,522.563968 C1362.22912,522.513647 1362.32973,522.463326 1362.38004,522.413004 L1373.59796,513.40551 C1374.101,513.00294 1374.85557,512.902298 1375.45923,513.204225 Z M1263.28002,483.011506 C1263.93398,483.313433 1264.33641,483.917287 1264.33641,484.571463 C1264.33641,485.074675 1264.13519,485.527566 1263.68245,485.829493 L1256.13677,491.918358 L1291.40028,491.918358 C1292.40637,491.918358 1293.16094,492.673176 1293.16094,493.6796 C1293.16094,494.686024 1292.40637,495.440842 1291.40028,495.440842 L1256.13677,495.440842 L1263.68245,501.529707 C1264.08489,501.881955 1264.33641,502.334846 1264.33641,502.787737 C1264.33641,503.441912 1263.93398,504.045767 1263.28002,504.347694 C1262.62606,504.649621 1261.92179,504.548979 1261.36844,504.146409 L1250.15052,495.138915 C1250.10022,495.088593 1250.04991,495.088593 1249.99961,495.038272 L1249.899,494.987951 L1249.79839,494.836987 C1249.54687,494.53506 1249.39595,494.132491 1249.39595,493.6796 C1249.39595,493.226709 1249.54687,492.824139 1249.84869,492.522212 L1249.99961,492.371249 C1250.04991,492.320927 1250.15052,492.270606 1250.20083,492.220285 L1261.41875,483.21279 C1261.87149,482.810221 1262.62606,482.709578 1263.28002,483.011506 Z M1298.49322,452.818786 C1299.14718,453.120713 1299.54962,453.724568 1299.54962,454.378743 C1299.54962,454.881955 1299.3484,455.334846 1298.89566,455.636773 L1291.34997,461.725638 L1326.61348,461.725638 C1327.61957,461.725638 1328.37414,462.480456 1328.37414,463.48688 C1328.37414,464.493304 1327.61957,465.248122 1326.61348,465.248122 L1291.34997,465.248122 L1298.89566,471.336987 C1299.29809,471.689236 1299.54962,472.142127 1299.54962,472.595017 C1299.54962,473.249193 1299.14718,473.853047 1298.49322,474.154974 C1297.83926,474.456902 1297.135,474.356259 1296.58165,473.95369 L1285.36373,464.946195 C1285.31342,464.895874 1285.26312,464.895874 1285.21281,464.845553 L1285.1122,464.795231 L1285.01159,464.644268 C1284.76007,464.342341 1284.60916,463.939771 1284.60916,463.48688 C1284.60916,463.033989 1284.76007,462.63142 1285.0619,462.329493 L1285.21281,462.178529 C1285.26312,462.128208 1285.36373,462.077887 1285.41403,462.027566 L1296.63195,453.020071 C1297.08469,452.617501 1297.83926,452.516859 1298.49322,452.818786 Z M1298.49322,513.204225 C1299.14718,513.506152 1299.54962,514.110007 1299.54962,514.764182 C1299.54962,515.267394 1299.3484,515.720285 1298.89566,516.022212 L1291.34997,522.111077 L1326.61348,522.111077 C1327.61957,522.111077 1328.37414,522.865895 1328.37414,523.872319 C1328.37414,524.878743 1327.61957,525.633561 1326.61348,525.633561 L1291.34997,525.633561 L1298.89566,531.722426 C1299.29809,532.074675 1299.54962,532.527566 1299.54962,532.980456 C1299.54962,533.634632 1299.14718,534.238486 1298.49322,534.540413 C1297.83926,534.842341 1297.135,534.741698 1296.58165,534.339129 L1285.36373,525.331634 C1285.31342,525.281313 1285.26312,525.281313 1285.21281,525.230992 L1285.1122,525.18067 L1285.01159,525.029707 C1284.76007,524.72778 1284.60916,524.32521 1284.60916,523.872319 C1284.60916,523.419428 1284.76007,523.016859 1285.0619,522.714932 L1285.21281,522.563968 C1285.26312,522.513647 1285.36373,522.463326 1285.41403,522.413004 L1296.63195,513.40551 C1297.08469,513.00294 1297.83926,512.902298 1298.49322,513.204225 Z M1263.28002,598.096088 C1263.93398,598.398015 1264.33641,599.00187 1264.33641,599.656045 C1264.33641,600.159257 1264.13519,600.612148 1263.68245,600.914075 L1256.13677,607.00294 L1291.40028,607.00294 C1292.40637,607.00294 1293.16094,607.757758 1293.16094,608.764182 C1293.16094,609.770606 1292.40637,610.525424 1291.40028,610.525424 L1256.13677,610.525424 L1263.68245,616.614289 C1264.08489,616.966538 1264.33641,617.419428 1264.33641,617.872319 C1264.33641,618.526495 1263.93398,619.130349 1263.28002,619.432276 C1262.62606,619.734204 1261.92179,619.633561 1261.36844,619.230992 L1250.15052,610.223497 C1250.10022,610.173176 1250.04991,610.173176 1249.99961,610.122855 L1249.899,610.072533 L1249.79839,609.92157 C1249.54687,609.619643 1249.39595,609.217073 1249.39595,608.764182 C1249.39595,608.311291 1249.54687,607.908722 1249.84869,607.606795 L1249.99961,607.455831 C1250.04991,607.40551 1250.15052,607.355189 1250.20083,607.304867 L1261.41875,598.297373 C1261.87149,597.844482 1262.62606,597.74384 1263.28002,598.096088 Z M1345.27648,543.547908 C1345.93044,543.849835 1346.33287,544.45369 1346.33287,545.107865 C1346.33287,545.611077 1346.13166,546.063968 1345.67892,546.365895 L1338.13323,552.45476 L1373.39674,552.45476 C1374.40283,552.45476 1375.1574,553.209578 1375.1574,554.216002 C1375.1574,555.222426 1374.40283,555.977244 1373.39674,555.977244 L1338.13323,555.977244 L1345.67892,562.066109 C1346.08135,562.418358 1346.33287,562.871249 1346.33287,563.324139 C1346.33287,563.978315 1345.93044,564.582169 1345.27648,564.884097 C1344.62252,565.186024 1343.91826,565.085381 1343.3649,564.682812 L1332.14698,555.675317 C1332.09668,555.624996 1332.04637,555.624996 1331.99607,555.574675 L1331.89546,555.524354 L1331.79485,555.37339 C1331.54333,555.071463 1331.39242,554.668893 1331.39242,554.216002 C1331.39242,553.763112 1331.54333,553.360542 1331.84516,553.058615 L1331.99607,552.907651 C1332.04637,552.85733 1332.14698,552.807009 1332.19729,552.756688 L1343.41521,543.749193 C1343.91826,543.296302 1344.67282,543.245981 1345.27648,543.547908 Z M1375.45923,573.740628 C1376.11319,574.042555 1376.51562,574.646409 1376.51562,575.300585 C1376.51562,575.803797 1376.3144,576.256688 1375.86166,576.558615 L1368.31598,582.64748 L1403.57949,582.64748 C1404.58558,582.64748 1405.34015,583.402298 1405.34015,584.408722 C1405.34015,585.415146 1404.58558,586.169964 1403.57949,586.169964 L1368.31598,586.169964 L1375.86166,592.258829 C1376.2641,592.611077 1376.51562,593.063968 1376.51562,593.516859 C1376.51562,594.171034 1376.11319,594.774889 1375.45923,595.076816 C1374.80527,595.378743 1374.101,595.278101 1373.54765,594.875531 L1362.32973,585.868037 C1362.27943,585.817715 1362.22912,585.817715 1362.17882,585.767394 L1362.07821,585.717073 L1361.9776,585.566109 C1361.72608,585.264182 1361.57516,584.861613 1361.57516,584.408722 C1361.57516,583.955831 1361.72608,583.553261 1362.0279,583.251334 L1362.17882,583.100371 C1362.22912,583.050049 1362.32973,582.999728 1362.38004,582.949407 L1373.59796,573.941912 C1374.101,573.489022 1374.85557,573.4387 1375.45923,573.740628 Z M1263.28002,543.547908 C1263.93398,543.849835 1264.33641,544.45369 1264.33641,545.107865 C1264.33641,545.611077 1264.13519,546.063968 1263.68245,546.365895 L1256.13677,552.45476 L1291.40028,552.45476 C1292.40637,552.45476 1293.16094,553.209578 1293.16094,554.216002 C1293.16094,555.222426 1292.40637,555.977244 1291.40028,555.977244 L1256.13677,555.977244 L1263.68245,562.066109 C1264.08489,562.418358 1264.33641,562.871249 1264.33641,563.324139 C1264.33641,563.978315 1263.93398,564.582169 1263.28002,564.884097 C1262.62606,565.186024 1261.92179,565.085381 1261.36844,564.682812 L1250.15052,555.675317 C1250.10022,555.624996 1250.04991,555.624996 1249.99961,555.574675 L1249.899,555.524354 L1249.79839,555.37339 C1249.54687,555.071463 1249.39595,554.668893 1249.39595,554.216002 C1249.39595,553.763112 1249.54687,553.360542 1249.84869,553.058615 L1249.99961,552.907651 C1250.04991,552.85733 1250.15052,552.807009 1250.20083,552.756688 L1261.41875,543.749193 C1261.87149,543.296302 1262.62606,543.245981 1263.28002,543.547908 Z M1298.49322,573.740628 C1299.14718,574.042555 1299.54962,574.646409 1299.54962,575.300585 C1299.54962,575.803797 1299.3484,576.256688 1298.89566,576.558615 L1291.34997,582.64748 L1326.61348,582.64748 C1327.61957,582.64748 1328.37414,583.402298 1328.37414,584.408722 C1328.37414,585.415146 1327.61957,586.169964 1326.61348,586.169964 L1291.34997,586.169964 L1298.89566,592.258829 C1299.29809,592.611077 1299.54962,593.063968 1299.54962,593.516859 C1299.54962,594.171034 1299.14718,594.774889 1298.49322,595.076816 C1297.83926,595.378743 1297.135,595.278101 1296.58165,594.875531 L1285.36373,585.868037 C1285.31342,585.817715 1285.26312,585.817715 1285.21281,585.767394 L1285.1122,585.717073 L1285.01159,585.566109 C1284.76007,585.264182 1284.60916,584.861613 1284.60916,584.408722 C1284.60916,583.955831 1284.76007,583.553261 1285.0619,583.251334 L1285.21281,583.100371 C1285.26312,583.050049 1285.36373,582.999728 1285.41403,582.949407 L1296.63195,573.941912 C1297.08469,573.489022 1297.83926,573.4387 1298.49322,573.740628 Z M1375.45923,622.401227 C1376.11319,622.703154 1376.51562,623.307009 1376.51562,623.961184 C1376.51562,624.464396 1376.3144,624.917287 1375.86166,625.219214 L1368.31598,631.308079 L1403.57949,631.308079 C1404.58558,631.308079 1405.34015,632.062897 1405.34015,633.069321 C1405.34015,634.075745 1404.58558,634.830563 1403.57949,634.830563 L1368.31598,634.830563 L1375.86166,640.919428 C1376.2641,641.271677 1376.51562,641.724568 1376.51562,642.177458 C1376.51562,642.831634 1376.11319,643.435488 1375.45923,643.737416 C1374.80527,644.039343 1374.101,643.9387 1373.54765,643.536131 L1362.32973,634.528636 C1362.27943,634.478315 1362.22912,634.478315 1362.17882,634.427994 L1362.07821,634.377673 L1361.9776,634.226709 C1361.72608,633.924782 1361.57516,633.522212 1361.57516,633.069321 C1361.57516,632.616431 1361.72608,632.213861 1362.0279,631.911934 L1362.17882,631.76097 C1362.22912,631.710649 1362.32973,631.660328 1362.38004,631.610007 L1373.59796,622.602512 C1374.101,622.199942 1374.85557,622.0993 1375.45923,622.401227 Z M1298.49322,622.401227 C1299.14718,622.703154 1299.54962,623.307009 1299.54962,623.961184 C1299.54962,624.464396 1299.3484,624.917287 1298.89566,625.219214 L1291.34997,631.308079 L1326.61348,631.308079 C1327.61957,631.308079 1328.37414,632.062897 1328.37414,633.069321 C1328.37414,634.075745 1327.61957,634.830563 1326.61348,634.830563 L1291.34997,634.830563 L1298.89566,640.919428 C1299.29809,641.271677 1299.54962,641.724568 1299.54962,642.177458 C1299.54962,642.831634 1299.14718,643.435488 1298.49322,643.737416 C1297.83926,644.039343 1297.135,643.9387 1296.58165,643.536131 L1285.36373,634.528636 C1285.31342,634.478315 1285.26312,634.478315 1285.21281,634.427994 L1285.1122,634.377673 L1285.01159,634.226709 C1284.76007,633.924782 1284.60916,633.522212 1284.60916,633.069321 C1284.60916,632.616431 1284.76007,632.213861 1285.0619,631.911934 L1285.21281,631.76097 C1285.26312,631.710649 1285.36373,631.660328 1285.41403,631.610007 L1296.63195,622.602512 C1297.08469,622.199942 1297.83926,622.0993 1298.49322,622.401227 Z M1263.28002,258.931206 C1263.93398,259.233133 1264.33641,259.836987 1264.33641,260.491163 C1264.33641,260.994375 1264.13519,261.447266 1263.68245,261.749193 L1256.13677,267.838058 L1291.40028,267.838058 C1292.40637,267.838058 1293.16094,268.592876 1293.16094,269.5993 C1293.16094,270.605724 1292.40637,271.360542 1291.40028,271.360542 L1256.13677,271.360542 L1263.68245,277.449407 C1264.08489,277.801655 1264.33641,278.254546 1264.33641,278.707437 C1264.33641,279.361613 1263.93398,279.965467 1263.28002,280.267394 C1262.62606,280.569321 1261.92179,280.468679 1261.36844,280.066109 L1250.15052,271.058615 C1250.10022,271.008294 1250.04991,271.008294 1249.99961,270.957972 L1249.899,270.907651 L1249.79839,270.756688 C1249.54687,270.45476 1249.39595,270.052191 1249.39595,269.5993 C1249.39595,269.146409 1249.54687,268.74384 1249.84869,268.441912 L1249.99961,268.290949 C1250.04991,268.240628 1250.15052,268.190306 1250.20083,268.139985 L1261.41875,259.132491 C1261.87149,258.6796 1262.62606,258.578957 1263.28002,258.931206 Z M1345.27648,204.383026 C1345.93044,204.684953 1346.33287,205.288807 1346.33287,205.942983 C1346.33287,206.446195 1346.13166,206.899086 1345.67892,207.201013 L1338.13323,213.289878 L1373.39674,213.289878 C1374.40283,213.289878 1375.1574,214.044696 1375.1574,215.05112 C1375.1574,216.057544 1374.40283,216.812362 1373.39674,216.812362 L1338.13323,216.812362 L1345.67892,222.901227 C1346.08135,223.253476 1346.33287,223.706366 1346.33287,224.159257 C1346.33287,224.813433 1345.93044,225.417287 1345.27648,225.719214 C1344.62252,226.021142 1343.91826,225.920499 1343.3649,225.51793 L1332.14698,216.510435 C1332.09668,216.460114 1332.04637,216.460114 1331.99607,216.409792 L1331.89546,216.359471 L1331.79485,216.208508 C1331.54333,215.90658 1331.39242,215.504011 1331.39242,215.05112 C1331.39242,214.598229 1331.54333,214.19566 1331.84516,213.893733 L1331.99607,213.742769 C1332.04637,213.692448 1332.14698,213.642127 1332.19729,213.591805 L1343.41521,204.584311 C1343.91826,204.13142 1344.67282,204.081099 1345.27648,204.383026 Z M1375.45923,174.190306 C1376.11319,174.492234 1376.51562,175.096088 1376.51562,175.750264 C1376.51562,176.253476 1376.3144,176.706366 1375.86166,177.008294 L1368.31598,183.097159 L1403.57949,183.097159 C1404.58558,183.097159 1405.34015,183.851977 1405.34015,184.858401 C1405.34015,185.864825 1404.58558,186.619643 1403.57949,186.619643 L1368.31598,186.619643 L1375.86166,192.708508 C1376.2641,193.060756 1376.51562,193.513647 1376.51562,193.966538 C1376.51562,194.620713 1376.11319,195.224568 1375.45923,195.526495 C1374.80527,195.828422 1374.101,195.72778 1373.54765,195.32521 L1362.32973,186.317715 C1362.27943,186.267394 1362.22912,186.267394 1362.17882,186.217073 L1362.07821,186.166752 L1361.9776,186.015788 C1361.72608,185.713861 1361.57516,185.311291 1361.57516,184.858401 C1361.57516,184.40551 1361.72608,184.00294 1362.0279,183.701013 L1362.17882,183.550049 C1362.22912,183.499728 1362.32973,183.449407 1362.38004,183.399086 L1373.54765,174.391591 C1374.101,173.9387 1374.85557,173.888379 1375.45923,174.190306 Z M1375.45923,234.575745 C1376.11319,234.877673 1376.51562,235.481527 1376.51562,236.135703 C1376.51562,236.638915 1376.3144,237.091805 1375.86166,237.393733 L1368.31598,243.482598 L1403.57949,243.482598 C1404.58558,243.482598 1405.34015,244.237416 1405.34015,245.24384 C1405.34015,246.250264 1404.58558,247.005082 1403.57949,247.005082 L1368.31598,247.005082 L1375.86166,253.093947 C1376.2641,253.446195 1376.51562,253.899086 1376.51562,254.351977 C1376.51562,255.006152 1376.11319,255.610007 1375.45923,255.911934 C1374.80527,256.213861 1374.101,256.113219 1373.54765,255.710649 L1362.32973,246.703154 C1362.27943,246.652833 1362.22912,246.652833 1362.17882,246.602512 L1362.07821,246.552191 L1361.9776,246.401227 C1361.72608,246.0993 1361.57516,245.69673 1361.57516,245.24384 C1361.57516,244.790949 1361.72608,244.388379 1362.0279,244.086452 L1362.17882,243.935488 C1362.22912,243.885167 1362.32973,243.834846 1362.38004,243.784525 L1373.59796,234.77703 C1374.101,234.324139 1374.85557,234.273818 1375.45923,234.575745 Z M1263.28002,204.383026 C1263.93398,204.684953 1264.33641,205.288807 1264.33641,205.942983 C1264.33641,206.446195 1264.13519,206.899086 1263.68245,207.201013 L1256.13677,213.289878 L1291.40028,213.289878 C1292.40637,213.289878 1293.16094,214.044696 1293.16094,215.05112 C1293.16094,216.057544 1292.40637,216.812362 1291.40028,216.812362 L1256.13677,216.812362 L1263.68245,222.901227 C1264.08489,223.253476 1264.33641,223.706366 1264.33641,224.159257 C1264.33641,224.813433 1263.93398,225.417287 1263.28002,225.719214 C1262.62606,226.021142 1261.92179,225.920499 1261.36844,225.51793 L1250.15052,216.510435 C1250.10022,216.460114 1250.04991,216.460114 1249.99961,216.409792 L1249.899,216.359471 L1249.79839,216.208508 C1249.54687,215.90658 1249.39595,215.504011 1249.39595,215.05112 C1249.39595,214.598229 1249.54687,214.19566 1249.84869,213.893733 L1249.99961,213.742769 C1250.04991,213.692448 1250.15052,213.642127 1250.20083,213.591805 L1261.41875,204.584311 C1261.87149,204.13142 1262.62606,204.081099 1263.28002,204.383026 Z M1298.49322,174.190306 C1299.14718,174.492234 1299.54962,175.096088 1299.54962,175.750264 C1299.54962,176.253476 1299.3484,176.706366 1298.89566,177.008294 L1291.34997,183.097159 L1326.61348,183.097159 C1327.61957,183.097159 1328.37414,183.851977 1328.37414,184.858401 C1328.37414,185.864825 1327.61957,186.619643 1326.61348,186.619643 L1291.34997,186.619643 L1298.89566,192.708508 C1299.29809,193.060756 1299.54962,193.513647 1299.54962,193.966538 C1299.54962,194.620713 1299.14718,195.224568 1298.49322,195.526495 C1297.83926,195.828422 1297.135,195.72778 1296.58165,195.32521 L1285.36373,186.317715 C1285.31342,186.267394 1285.26312,186.267394 1285.21281,186.217073 L1285.1122,186.166752 L1285.01159,186.015788 C1284.76007,185.713861 1284.60916,185.311291 1284.60916,184.858401 C1284.60916,184.40551 1284.76007,184.00294 1285.0619,183.701013 L1285.21281,183.550049 C1285.26312,183.499728 1285.36373,183.449407 1285.41403,183.399086 L1296.58165,174.391591 C1297.08469,173.9387 1297.83926,173.888379 1298.49322,174.190306 Z M1298.49322,234.575745 C1299.14718,234.877673 1299.54962,235.481527 1299.54962,236.135703 C1299.54962,236.638915 1299.3484,237.091805 1298.89566,237.393733 L1291.34997,243.482598 L1326.61348,243.482598 C1327.61957,243.482598 1328.37414,244.237416 1328.37414,245.24384 C1328.37414,246.250264 1327.61957,247.005082 1326.61348,247.005082 L1291.34997,247.005082 L1298.89566,253.093947 C1299.29809,253.446195 1299.54962,253.899086 1299.54962,254.351977 C1299.54962,255.006152 1299.14718,255.610007 1298.49322,255.911934 C1297.83926,256.213861 1297.135,256.113219 1296.58165,255.710649 L1285.36373,246.703154 C1285.31342,246.652833 1285.26312,246.652833 1285.21281,246.602512 L1285.1122,246.552191 L1285.01159,246.401227 C1284.76007,246.0993 1284.60916,245.69673 1284.60916,245.24384 C1284.60916,244.790949 1284.76007,244.388379 1285.0619,244.086452 L1285.21281,243.935488 C1285.26312,243.885167 1285.36373,243.834846 1285.41403,243.784525 L1296.63195,234.77703 C1297.08469,234.324139 1297.83926,234.273818 1298.49322,234.575745 Z M1345.27648,313.429064 C1345.93044,313.730992 1346.33287,314.334846 1346.33287,314.989022 C1346.33287,315.492234 1346.13166,315.945124 1345.67892,316.247052 L1338.13323,322.335917 L1373.39674,322.335917 C1374.40283,322.335917 1375.1574,323.090735 1375.1574,324.097159 C1375.1574,325.103583 1374.40283,325.858401 1373.39674,325.858401 L1338.13323,325.858401 L1345.67892,331.947266 C1346.08135,332.299514 1346.33287,332.752405 1346.33287,333.205296 C1346.33287,333.859471 1345.93044,334.463326 1345.27648,334.765253 C1344.62252,335.06718 1343.91826,334.966538 1343.3649,334.563968 L1332.14698,325.556473 C1332.09668,325.506152 1332.04637,325.506152 1331.99607,325.455831 L1331.89546,325.40551 L1331.79485,325.254546 C1331.54333,324.952619 1331.39242,324.550049 1331.39242,324.097159 C1331.39242,323.644268 1331.54333,323.241698 1331.84516,322.939771 L1331.99607,322.788807 C1332.04637,322.738486 1332.14698,322.688165 1332.19729,322.637844 L1343.41521,313.630349 C1343.91826,313.22778 1344.67282,313.127137 1345.27648,313.429064 Z M1375.45923,283.236345 C1376.11319,283.538272 1376.51562,284.142127 1376.51562,284.796302 C1376.51562,285.299514 1376.3144,285.752405 1375.86166,286.054332 L1368.31598,292.143197 L1403.57949,292.143197 C1404.58558,292.143197 1405.34015,292.898015 1405.34015,293.904439 C1405.34015,294.910863 1404.58558,295.665681 1403.57949,295.665681 L1368.31598,295.665681 L1375.86166,301.754546 C1376.2641,302.106795 1376.51562,302.559685 1376.51562,303.012576 C1376.51562,303.666752 1376.11319,304.270606 1375.45923,304.572533 C1374.80527,304.874461 1374.101,304.773818 1373.54765,304.371249 L1362.32973,295.363754 C1362.27943,295.313433 1362.22912,295.313433 1362.17882,295.263112 L1362.07821,295.21279 L1361.9776,295.061827 C1361.72608,294.7599 1361.57516,294.35733 1361.57516,293.904439 C1361.57516,293.451548 1361.72608,293.048979 1362.0279,292.747052 L1362.17882,292.596088 C1362.22912,292.545767 1362.32973,292.495446 1362.38004,292.445124 L1373.59796,283.43763 C1374.101,283.03506 1374.85557,282.934418 1375.45923,283.236345 Z M1263.28002,313.429064 C1263.93398,313.730992 1264.33641,314.334846 1264.33641,314.989022 C1264.33641,315.492234 1264.13519,315.945124 1263.68245,316.247052 L1256.13677,322.335917 L1291.40028,322.335917 C1292.40637,322.335917 1293.16094,323.090735 1293.16094,324.097159 C1293.16094,325.103583 1292.40637,325.858401 1291.40028,325.858401 L1256.13677,325.858401 L1263.68245,331.947266 C1264.08489,332.299514 1264.33641,332.752405 1264.33641,333.205296 C1264.33641,333.859471 1263.93398,334.463326 1263.28002,334.765253 C1262.62606,335.06718 1261.92179,334.966538 1261.36844,334.563968 L1250.15052,325.556473 C1250.10022,325.506152 1250.04991,325.506152 1249.99961,325.455831 L1249.899,325.40551 L1249.79839,325.254546 C1249.54687,324.952619 1249.39595,324.550049 1249.39595,324.097159 C1249.39595,323.644268 1249.54687,323.241698 1249.84869,322.939771 L1249.99961,322.788807 C1250.04991,322.738486 1250.15052,322.688165 1250.20083,322.637844 L1261.41875,313.630349 C1261.87149,313.22778 1262.62606,313.127137 1263.28002,313.429064 Z M1298.49322,283.236345 C1299.14718,283.538272 1299.54962,284.142127 1299.54962,284.796302 C1299.54962,285.299514 1299.3484,285.752405 1298.89566,286.054332 L1291.34997,292.143197 L1326.61348,292.143197 C1327.61957,292.143197 1328.37414,292.898015 1328.37414,293.904439 C1328.37414,294.910863 1327.61957,295.665681 1326.61348,295.665681 L1291.34997,295.665681 L1298.89566,301.754546 C1299.29809,302.106795 1299.54962,302.559685 1299.54962,303.012576 C1299.54962,303.666752 1299.14718,304.270606 1298.49322,304.572533 C1297.83926,304.874461 1297.135,304.773818 1296.58165,304.371249 L1285.36373,295.363754 C1285.31342,295.313433 1285.26312,295.313433 1285.21281,295.263112 L1285.1122,295.21279 L1285.01159,295.061827 C1284.76007,294.7599 1284.60916,294.35733 1284.60916,293.904439 C1284.60916,293.451548 1284.76007,293.048979 1285.0619,292.747052 L1285.21281,292.596088 C1285.26312,292.545767 1285.36373,292.495446 1285.41403,292.445124 L1296.63195,283.43763 C1297.08469,283.03506 1297.83926,282.934418 1298.49322,283.236345 Z M1410.16938,428.513647 C1410.82334,428.815574 1411.22578,429.419428 1411.22578,430.073604 C1411.22578,430.576816 1411.02456,431.029707 1410.57182,431.331634 L1403.02613,437.420499 L1438.23934,437.420499 C1439.24543,437.420499 1440,438.175317 1440,439.181741 C1440,440.188165 1439.24543,440.942983 1438.23934,440.942983 L1402.97583,440.942983 L1410.52152,447.031848 C1410.92395,447.384097 1411.17548,447.836987 1411.17548,448.289878 C1411.17548,448.944054 1410.77304,449.547908 1410.11908,449.849835 C1409.46512,450.151763 1408.76086,450.05112 1408.20751,449.648551 L1396.98959,440.641056 C1396.93928,440.590735 1396.88898,440.590735 1396.83867,440.540413 L1396.73806,440.490092 L1396.63745,440.339129 C1396.38593,440.037201 1396.23502,439.634632 1396.23502,439.181741 C1396.23502,438.72885 1396.38593,438.326281 1396.68776,438.024354 L1396.83867,437.87339 C1396.88898,437.823069 1396.98959,437.772748 1397.03989,437.722426 L1408.25781,428.714932 C1408.76086,428.262041 1409.51543,428.161398 1410.16938,428.513647 Z M1410.16938,373.965467 C1410.82334,374.267394 1411.22578,374.871249 1411.22578,375.525424 C1411.22578,376.028636 1411.02456,376.481527 1410.57182,376.783454 L1403.02613,382.872319 L1438.23934,382.872319 C1439.24543,382.872319 1440,383.627137 1440,384.633561 C1440,385.639985 1439.24543,386.394803 1438.23934,386.394803 L1402.97583,386.394803 L1410.52152,392.483668 C1410.92395,392.835917 1411.17548,393.288807 1411.17548,393.741698 C1411.17548,394.395874 1410.77304,394.999728 1410.11908,395.301655 C1409.46512,395.603583 1408.76086,395.50294 1408.20751,395.100371 L1396.98959,386.092876 C1396.93928,386.042555 1396.88898,386.042555 1396.83867,385.992234 L1396.73806,385.941912 L1396.63745,385.790949 C1396.38593,385.489022 1396.23502,385.086452 1396.23502,384.633561 C1396.23502,384.18067 1396.38593,383.778101 1396.68776,383.476174 L1396.83867,383.32521 C1396.88898,383.274889 1396.98959,383.224568 1397.03989,383.174246 L1408.25781,374.166752 C1408.76086,373.713861 1409.51543,373.66354 1410.16938,373.965467 Z M1410.16938,483.011506 C1410.82334,483.313433 1411.22578,483.917287 1411.22578,484.571463 C1411.22578,485.074675 1411.02456,485.527566 1410.57182,485.829493 L1403.02613,491.918358 L1438.23934,491.918358 C1439.24543,491.918358 1440,492.673176 1440,493.6796 C1440,494.686024 1439.24543,495.440842 1438.23934,495.440842 L1402.97583,495.440842 L1410.52152,501.529707 C1410.92395,501.881955 1411.17548,502.334846 1411.17548,502.787737 C1411.17548,503.441912 1410.77304,504.045767 1410.11908,504.347694 C1409.46512,504.649621 1408.76086,504.548979 1408.20751,504.146409 L1396.98959,495.138915 C1396.93928,495.088593 1396.88898,495.088593 1396.83867,495.038272 L1396.73806,494.987951 L1396.63745,494.836987 C1396.38593,494.53506 1396.23502,494.132491 1396.23502,493.6796 C1396.23502,493.226709 1396.38593,492.824139 1396.68776,492.522212 L1396.83867,492.371249 C1396.88898,492.320927 1396.98959,492.270606 1397.03989,492.220285 L1408.25781,483.21279 C1408.76086,482.810221 1409.51543,482.709578 1410.16938,483.011506 Z M1410.16938,598.096088 C1410.82334,598.398015 1411.22578,599.00187 1411.22578,599.656045 C1411.22578,600.159257 1411.02456,600.612148 1410.57182,600.914075 L1403.02613,607.00294 L1438.23934,607.00294 C1439.24543,607.00294 1440,607.757758 1440,608.764182 C1440,609.770606 1439.24543,610.525424 1438.23934,610.525424 L1402.97583,610.525424 L1410.52152,616.614289 C1410.92395,616.966538 1411.17548,617.419428 1411.17548,617.872319 C1411.17548,618.526495 1410.77304,619.130349 1410.11908,619.432276 C1409.46512,619.734204 1408.76086,619.633561 1408.20751,619.230992 L1396.98959,610.223497 C1396.93928,610.173176 1396.88898,610.173176 1396.83867,610.122855 L1396.73806,610.072533 L1396.63745,609.92157 C1396.38593,609.619643 1396.23502,609.217073 1396.23502,608.764182 C1396.23502,608.311291 1396.38593,607.908722 1396.68776,607.606795 L1396.83867,607.455831 C1396.88898,607.40551 1396.98959,607.355189 1397.03989,607.304867 L1408.25781,598.297373 C1408.76086,597.844482 1409.51543,597.74384 1410.16938,598.096088 Z M1410.16938,543.547908 C1410.82334,543.849835 1411.22578,544.45369 1411.22578,545.107865 C1411.22578,545.611077 1411.02456,546.063968 1410.57182,546.365895 L1403.02613,552.45476 L1438.23934,552.45476 C1439.24543,552.45476 1440,553.209578 1440,554.216002 C1440,555.222426 1439.24543,555.977244 1438.23934,555.977244 L1402.97583,555.977244 L1410.52152,562.066109 C1410.92395,562.418358 1411.17548,562.871249 1411.17548,563.324139 C1411.17548,563.978315 1410.77304,564.582169 1410.11908,564.884097 C1409.46512,565.186024 1408.76086,565.085381 1408.20751,564.682812 L1396.98959,555.675317 C1396.93928,555.624996 1396.88898,555.624996 1396.83867,555.574675 L1396.73806,555.524354 L1396.63745,555.37339 C1396.38593,555.071463 1396.23502,554.668893 1396.23502,554.216002 C1396.23502,553.763112 1396.38593,553.360542 1396.68776,553.058615 L1396.83867,552.907651 C1396.88898,552.85733 1396.98959,552.807009 1397.03989,552.756688 L1408.25781,543.749193 C1408.76086,543.296302 1409.51543,543.245981 1410.16938,543.547908 Z M1410.16938,258.931206 C1410.82334,259.233133 1411.22578,259.836987 1411.22578,260.491163 C1411.22578,260.994375 1411.02456,261.447266 1410.57182,261.749193 L1403.02613,267.838058 L1438.23934,267.838058 C1439.24543,267.838058 1440,268.592876 1440,269.5993 C1440,270.605724 1439.24543,271.360542 1438.23934,271.360542 L1402.97583,271.360542 L1410.52152,277.449407 C1410.92395,277.801655 1411.17548,278.254546 1411.17548,278.707437 C1411.17548,279.361613 1410.77304,279.965467 1410.11908,280.267394 C1409.46512,280.569321 1408.76086,280.468679 1408.20751,280.066109 L1396.98959,271.058615 C1396.93928,271.008294 1396.88898,271.008294 1396.83867,270.957972 L1396.73806,270.907651 L1396.63745,270.756688 C1396.38593,270.45476 1396.23502,270.052191 1396.23502,269.5993 C1396.23502,269.146409 1396.38593,268.74384 1396.68776,268.441912 L1396.83867,268.290949 C1396.88898,268.240628 1396.98959,268.190306 1397.03989,268.139985 L1408.25781,259.132491 C1408.76086,258.6796 1409.51543,258.578957 1410.16938,258.931206 Z M1410.16938,204.383026 C1410.82334,204.684953 1411.22578,205.288807 1411.22578,205.942983 C1411.22578,206.446195 1411.02456,206.899086 1410.57182,207.201013 L1403.02613,213.289878 L1438.23934,213.289878 C1439.24543,213.289878 1440,214.044696 1440,215.05112 C1440,216.057544 1439.24543,216.812362 1438.23934,216.812362 L1402.97583,216.812362 L1410.52152,222.901227 C1410.92395,223.253476 1411.17548,223.706366 1411.17548,224.159257 C1411.17548,224.813433 1410.77304,225.417287 1410.11908,225.719214 C1409.46512,226.021142 1408.76086,225.920499 1408.20751,225.51793 L1396.98959,216.510435 C1396.93928,216.460114 1396.88898,216.460114 1396.83867,216.409792 L1396.73806,216.359471 L1396.63745,216.208508 C1396.38593,215.90658 1396.23502,215.504011 1396.23502,215.05112 C1396.23502,214.598229 1396.38593,214.19566 1396.68776,213.893733 L1396.83867,213.742769 C1396.88898,213.692448 1396.98959,213.642127 1397.03989,213.591805 L1408.25781,204.584311 C1408.76086,204.13142 1409.51543,204.081099 1410.16938,204.383026 Z M1410.16938,313.429064 C1410.82334,313.730992 1411.22578,314.334846 1411.22578,314.989022 C1411.22578,315.492234 1411.02456,315.945124 1410.57182,316.247052 L1403.02613,322.335917 L1438.23934,322.335917 C1439.24543,322.335917 1440,323.090735 1440,324.097159 C1440,325.103583 1439.24543,325.858401 1438.23934,325.858401 L1402.97583,325.858401 L1410.52152,331.947266 C1410.92395,332.299514 1411.17548,332.752405 1411.17548,333.205296 C1411.17548,333.859471 1410.77304,334.463326 1410.11908,334.765253 C1409.46512,335.06718 1408.76086,334.966538 1408.20751,334.563968 L1396.98959,325.556473 C1396.93928,325.506152 1396.88898,325.506152 1396.83867,325.455831 L1396.73806,325.40551 L1396.63745,325.254546 C1396.38593,324.952619 1396.23502,324.550049 1396.23502,324.097159 C1396.23502,323.644268 1396.38593,323.241698 1396.68776,322.939771 C1396.68776,322.939771 1396.68776,322.939771 1396.73806,322.88945 L1396.83867,322.788807 C1396.88898,322.738486 1396.98959,322.688165 1397.03989,322.637844 L1408.25781,313.630349 C1408.76086,313.22778 1409.51543,313.127137 1410.16938,313.429064 Z" id="arrow-pattern-right"></path>
        </g>
    </g>
</svg>