<svg xmlns="http://www.w3.org/2000/svg" viewBox="0 0 176 225" enable-background="new 0 0 176 225"><switch><g><g><path d="m50.672 54.51c-.665.506-2.975 1.944-6.451 1.944-6.291 0-10.577-3.967-10.577-10.01 0-6.01 4.545-10.01 10.725-10.01 2.403 0 5.157.741 6.692 1.4-.32.71-.585 1.65-.696 2.237l-.168.053c-1.189-1.314-3.099-2.454-5.927-2.454-3.588 0-7.719 2.907-7.719 8.7 0 5.642 4.209 8.639 7.972 8.639 3.381 0 4.997-1.574 6.451-2.803l.11.111-.412 2.194" fill="#005daa"/><path d="m66.25 55.07c0-.423.036-.86.067-1.071-1.908.175-7.146.334-9.189.362-.035-.51-.079-6.561-.027-7.495.816 0 5.132.056 7.06.251-.055-.279-.083-.695-.083-.973 0-.281.028-.782.083-1.06-1.648.139-3.761.277-7.06.277 0-.699.056-5.799.084-6.999 3.635 0 6.924.225 8.766.362-.031-.19-.066-.582-.066-.964 0-.381.026-.689.066-.955-.969.068-4.098.141-5.775.141-1.676 0-4.268-.056-5.944-.141.113 2.378.224 4.811.224 7.216v4.809c0 2.405-.11 4.837-.224 7.269 1.706-.083 4.323-.141 6.03-.141.08 0 .163 0 .247.001.585.002 1.324.011 2.088.023 1.322.024 2.717.065 3.723.116-.043-.292-.069-.601-.069-1.028" fill="#005daa"/><path d="m72.52 46.634v2.221c0 2.406.111 4.839.225 7.243-.477-.083-1.338-.093-1.514-.093-.174 0-1.033.01-1.512.093.113-2.404.225-4.837.225-7.243v-4.806c0-2.407-.111-4.838-.225-7.245 1.062.084 2.409.141 3.471.141 1.063 0 2.126-.141 3.188-.141 3.159 0 6.05.935 6.05 4.454 0 3.722-3.708 5.06-5.834 5.339 1.37 1.705 6.279 7.683 7.901 9.5-.56-.083-1.496-.093-1.752-.093-.254 0-1.222.01-1.752.093-1.105-1.685-4.644-6.988-7.05-9.466-.072.001-1.422.003-1.422.003m1.872-1.023c2.309-.046 5.343-.779 5.343-3.971 0-2.78-2.434-3.664-4.336-3.664-1.285 0-2.124.085-2.711.141-.086 2.041-.168 3.917-.168 5.933 0 0 0 1.333 0 1.536.277.037 1.588.03 1.872.025" fill="#005daa"/><path d="m104.11 36.797c-.328.056-.73.103-1.225.103-.49 0-.908-.052-1.192-.103.123 2.291.333 6.531.333 9.308 0 2.091 0 3.917-.029 4.952-1.015-1.083-12.682-13.156-13.869-14.445l-.914-.009c.043 1.779.092 3.709.092 7.231 0 4.511-.062 9.307-.293 12.264.328-.057.73-.101 1.227-.101.487 0 .907.051 1.192.101-.124-2.29-.336-6.53-.336-9.309 0-2.09.003-4.243.03-5.276 1.016 1.082 12.75 13.319 13.867 14.836l.917.011c-.042-1.78-.094-3.779-.094-7.301.001-4.509.066-9.306.294-12.262" fill="#005daa"/><path d="m53.22 87.17c-5.496-8.694-7.06-17.09-7.277-23.511-.848 0-1.693 0-2.539 0 .213 7.01 1.912 14.357 5.715 21.559.894.721 3 1.642 4.101 1.952" fill="#005daa"/><path d="m155.82.491c0 0-63.18-.501-83.33-.491-3.154.005-5.271.225-5.953.27-24.885 1.61-43.598 23.431-43.68 47.23-.025 6.918 1.818 14.713 4.809 25.24 3.953 13.902 8.581 29.853 8.581 29.853h2.525l-9.331-31.478.07-.045c6.854 13.236 22.655 23.876 40.584 23.876 9.675 0 18.648-2.709 25.718-7.697l.062.058-41.506 44.17h3.242c0 0 29.14-31.01 39.06-41.535 7.599-8.07 11.544-13.265 13.197-15.963 1.892-3.093 7.912-12.01 7.686-25.14l.08-.01 18.19 82.65h2.61c0 0-15.261-67.65-18.22-81.8-2.916-13.921-6.359-22.556-10.07-27.481-1.277-.712-3.267-1.521-4.206-1.74 5.392 6.802 9.421 16.925 9.421 27.05 0 24.792-20.17 44.964-44.961 44.964-24.793 0-44.961-20.17-44.961-44.964 0-24.791 20.241-44.961 44.975-44.961 10.993 0 21.19 4.03 29.01 10.672 1.515.21 3.545.683 4.757 1.12l.007-.024c-5.625-5.614-12.653-9.787-20.471-11.98 0-.061 0-.064 0-.064l72.11.449-.001-2.222" fill="#005daa"/><path d="m59.52 95.16c-1.605-.237-3.615-.806-4.823-1.323 5.413 6.16 12.86 11.09 20.17 13.854l1.918-2.036c-7.933-2.68-13.696-6.984-17.268-10.495" fill="#005daa"/><path d="m125.67 91.57c-8.03 9.823-20.485 16.438-34.801 16.43-3.073 0-6.06-.344-8.541-.85l-2.055 2.181c3.931.907 7.41 1.25 10.742 1.25 14.724 0 27.321-6.875 35.34-15.919l-.683-3.092" fill="#005daa"/><path d="m142.39 11.766l-4.332 44.717h-.081c-.617-8.441-4.821-18.522-10.02-24.894-9.02-11.06-22.258-17.741-37.12-17.741-14.176 0-26.808 6.289-35.498 16.15l1.99 1.577c8.211-9.284 19.971-15.234 33.508-15.234 16.48 0 29.904 8.446 37.412 19.928 6.701 10.246 8.925 23.375 7.37 32.992-.522 3.251-1.7 9.569-6.03 16.726l.757 3.331c5.311-8.231 8.01-15.556 10.1-34.28 1.614-14.365 4.384-43.27 4.384-43.27l-2.439.001" fill="#005daa"/></g><g><path d="m3.885 209.67c.428.857.994 1.543 1.697 2.057.702.514 1.508.875 2.417 1.08.908.205 1.826.309 2.751.309.72 0 1.474-.094 2.263-.283.788-.188 1.508-.48 2.16-.875.651-.393 1.191-.9 1.62-1.517.428-.617.643-1.354.643-2.211 0-.891-.214-1.628-.643-2.211-.429-.583-.977-1.088-1.646-1.517-.668-.428-1.432-.805-2.288-1.131-.857-.326-1.715-.66-2.571-1-.857-.342-1.715-.711-2.571-1.105-.857-.394-1.62-.875-2.289-1.44-.668-.566-1.208-1.234-1.62-2.01-.411-.771-.617-1.705-.617-2.803 0-1.302.308-2.408.925-3.317.617-.908 1.405-1.654 2.366-2.237.959-.583 2.023-1.01 3.188-1.286 1.165-.274 2.279-.412 3.343-.412 1.405 0 2.691.154 3.857.463 1.165.309 2.167.806 3.01 1.491.839.687 1.491 1.569 1.954 2.648.463 1.08.677 2.392.643 3.934h-3.24c.068-1.028-.051-1.903-.36-2.622s-.746-1.319-1.312-1.8c-.565-.48-1.243-.831-2.031-1.054-.789-.223-1.628-.335-2.519-.335-.72 0-1.466.069-2.237.206-.771.138-1.475.369-2.108.694-.635.326-1.166.78-1.594 1.363-.429.583-.643 1.337-.643 2.263 0 .617.154 1.166.463 1.646.308.48.72.909 1.234 1.286.514.378 1.106.72 1.774 1.028.668.309 1.379.617 2.134.926.925.378 1.894.763 2.905 1.157 1.01.395 1.936.883 2.777 1.466.84.583 1.543 1.286 2.108 2.108.566.823.849 1.852.849 3.085 0 1.509-.317 2.777-.951 3.806-.635 1.028-1.466 1.86-2.494 2.494-1.029.635-2.178 1.088-3.446 1.363-1.269.274-2.537.411-3.805.411-1.303 0-2.563-.172-3.78-.514-1.217-.342-2.289-.891-3.214-1.646-.926-.754-1.663-1.723-2.211-2.906-.548-1.183-.788-2.614-.72-4.294h3.188c.001 1.304.215 2.385.643 3.241" fill="#005daa"/><path d="m42.48 215.07l.926-4.834h-.103c-.995 1.577-2.323 2.897-3.985 3.96-1.664 1.062-3.489 1.594-5.477 1.594-1.166 0-2.237-.128-3.214-.385-.977-.257-1.826-.669-2.546-1.234-.72-.566-1.277-1.303-1.671-2.211-.395-.908-.592-1.997-.592-3.266 0-.72.137-1.765.412-3.137l3.651-17.02h3.24l-3.703 17.13c-.103.412-.189.849-.257 1.311-.069.463-.103.917-.103 1.363 0 .857.154 1.594.462 2.211.309.617.72 1.114 1.234 1.491.514.378 1.105.652 1.774.823.668.172 1.363.257 2.083.257 1.2 0 2.34-.257 3.42-.771 1.08-.514 2.074-1.242 2.982-2.186.908-.942 1.705-2.091 2.392-3.445.685-1.354 1.216-2.871 1.594-4.551l2.931-13.628h3.24l-5.708 26.536h-2.982z" fill="#005daa"/><path d="m60.786 188.54l-1.028 4.783h.103c1.131-1.748 2.443-3.111 3.934-4.088 1.492-.977 3.402-1.466 5.734-1.466 1.714 0 3.197.266 4.449.797 1.251.532 2.296 1.268 3.137 2.211.84.943 1.466 2.083 1.877 3.42.412 1.337.617 2.812.617 4.423 0 2.057-.334 4.106-1 6.145-.668 2.04-1.637 3.875-2.905 5.503-1.269 1.628-2.795 2.957-4.577 3.985-1.783 1.028-3.789 1.542-6.02 1.542-1.028 0-2.023-.111-2.983-.334-.96-.224-1.817-.574-2.571-1.054-.754-.48-1.388-1.106-1.902-1.877-.515-.771-.857-1.688-1.029-2.751h-.102l-3.24 15.07h-3.19l7.765-36.31h2.931m3.497 3.368c-1.44.943-2.648 2.143-3.625 3.6-.977 1.458-1.723 3.068-2.237 4.834-.514 1.766-.771 3.471-.771 5.117 0 2.366.643 4.235 1.928 5.605 1.286 1.372 3.111 2.057 5.477 2.057 1.851 0 3.488-.463 4.911-1.389 1.422-.926 2.605-2.108 3.548-3.548.942-1.44 1.653-3.03 2.134-4.757.479-1.731.72-3.402.72-5.01 0-2.263-.583-4.147-1.748-5.657-1.166-1.508-2.966-2.263-5.399-2.263-1.852.001-3.498.473-4.938 1.415" fill="#005daa"/><path d="m90.3 188.54l-1.028 4.783h.103c1.131-1.748 2.443-3.111 3.934-4.088 1.492-.977 3.402-1.466 5.734-1.466 1.714 0 3.197.266 4.449.797 1.251.532 2.296 1.268 3.137 2.211.84.943 1.466 2.083 1.877 3.42.412 1.337.617 2.812.617 4.423 0 2.057-.334 4.106-1 6.145-.669 2.04-1.637 3.875-2.905 5.503-1.269 1.628-2.795 2.957-4.577 3.985-1.783 1.028-3.789 1.542-6.02 1.542-1.028 0-2.023-.111-2.983-.334-.96-.224-1.817-.574-2.571-1.054-.754-.48-1.388-1.106-1.902-1.877-.515-.771-.857-1.688-1.029-2.751h-.103l-3.24 15.07h-3.188l7.765-36.31h2.93m3.497 3.368c-1.44.943-2.648 2.143-3.625 3.6-.977 1.458-1.723 3.068-2.237 4.834-.514 1.766-.771 3.471-.771 5.117 0 2.366.643 4.235 1.928 5.605 1.286 1.372 3.111 2.057 5.477 2.057 1.851 0 3.488-.463 4.911-1.389 1.422-.926 2.605-2.108 3.548-3.548.942-1.44 1.653-3.03 2.134-4.757.479-1.731.72-3.402.72-5.01 0-2.263-.583-4.147-1.749-5.657-1.166-1.508-2.966-2.263-5.399-2.263-1.852.001-3.497.473-4.937 1.415" fill="#005daa"/><path d="m122.03 178.35l-7.919 36.718h-3.188l7.868-36.718h3.239" fill="#005daa"/><path d="m129.34 188.54l-5.708 26.536h-3.188l5.657-26.536h3.239m2.211-10.182l-1.131 5.194h-3.24l1.131-5.194h3.24" fill="#005daa"/><path d="m134.43 204.74c0 1.2.154 2.314.462 3.343.309 1.028.78 1.911 1.414 2.648.634.738 1.44 1.32 2.417 1.749.977.429 2.116.643 3.42.643 2.16 0 3.993-.608 5.502-1.826 1.508-1.216 2.571-2.803 3.189-4.757h3.24c-.892 3.02-2.332 5.314-4.32 6.891-1.989 1.577-4.577 2.365-7.765 2.365-3.532 0-6.215-.994-8.05-2.982-1.835-1.988-2.751-4.731-2.751-8.228 0-2.126.317-4.191.952-6.197.634-2.01 1.568-3.797 2.803-5.374 1.234-1.577 2.742-2.845 4.525-3.806 1.782-.96 3.806-1.44 6.068-1.44 1.611 0 3.034.249 4.268.746 1.234.498 2.288 1.201 3.163 2.108.874.909 1.534 1.998 1.98 3.266.445 1.269.669 2.674.669 4.217 0 .755-.018 1.509-.051 2.263-.035.754-.103 1.526-.206 2.314h-20.776c-.103.618-.155 1.304-.155 2.057m17.922-5.836c.017-.326.025-.66.025-1 0-2.263-.643-4.062-1.928-5.399-1.286-1.337-3.06-2.01-5.323-2.01-1.337 0-2.563.266-3.677.797-1.115.532-2.108 1.234-2.983 2.108-.874.874-1.603 1.877-2.186 3.01-.583 1.131-1.012 2.314-1.286 3.548h17.331c.001-.376.009-.727.027-1.053" fill="#005daa"/><path d="m165.23 188.54l-1.337 6.12h.103c1.028-1.919 2.296-3.479 3.805-4.68 1.508-1.2 3.446-1.8 5.811-1.8h.875c.171 0 .325 0 .463 0 .136 0 .274.018.411.051l-.72 3.24c-.309 0-.617-.008-.926-.025-.309-.017-.617-.026-.926-.026-1.44.035-2.717.326-3.831.874-1.115.549-2.083 1.278-2.906 2.186-.823.909-1.5 1.946-2.031 3.111-.532 1.166-.935 2.366-1.208 3.6l-2.982 13.885h-3.189l5.657-26.536h2.931" fill="#005daa"/></g><path fill="#005daa" d="m.244 156.07h175.71v2h-175.71z"/></g></switch></svg>